<?xml version="1.0" encoding="UTF-8"?>
<svg version="1.1" xmlns="http://www.w3.org/2000/svg" width="417" height="458">
<path d="M0 0 C3.34829539 1.36995615 4.62389771 1.40745577 7.98828125 0.22265625 C9.98583143 -0.738896 9.98583143 -0.738896 11.92578125 -1.96484375 C36.62526379 -16.02079927 64.85395878 -18.866978 92.38012695 -11.82055664 C104.83126153 -8.34272337 104.83126153 -8.34272337 108.11328125 -3.90234375 C117.29538644 14.74011224 119.29227731 36.42159602 113.30859375 56.46484375 C112.65503906 58.32496094 112.65503906 58.32496094 111.98828125 60.22265625 C111.7469043 60.91262695 111.50552734 61.60259766 111.25683594 62.31347656 C105.53681285 78.27917623 96.60760258 91.25182533 85.546875 104.046875 C70.53992106 121.57408075 61.92640987 139.96056961 59.61328125 162.875 C58.96415132 166.35190218 58.08839504 168.40062834 55.98828125 171.22265625 C49.21270218 175.73970896 38.76556076 174.62511649 30.98828125 173.22265625 C28.98828125 171.22265625 28.98828125 171.22265625 28.82128906 167.3215332 C28.85042813 165.61778 28.89136294 163.91420487 28.94140625 162.2109375 C28.96087311 161.29862366 28.98033997 160.38630981 29.00039673 159.4463501 C29.06799115 156.47553258 29.15196029 153.50548479 29.23828125 150.53515625 C29.27795013 149.02911331 29.27795013 149.02911331 29.31842041 147.49264526 C30.38450177 107.21311696 30.38450177 107.21311696 34.98828125 91.22265625 C38.25329887 90.25799195 41.47407092 89.33019885 44.80859375 88.6328125 C53.69528184 86.71228784 60.90216144 83.91791743 65.98828125 76.03515625 C68.74401152 71.18392276 69.54760417 66.78422566 68.98828125 61.22265625 C67.61443909 57.02031553 66.36486558 55.50324849 62.80078125 52.84765625 C57.75679679 50.30438138 53.30813216 50.46515391 47.92578125 52.22265625 C38.76703107 58.45840105 34.84633066 67.64088314 31.42578125 77.84765625 C29.98828125 81.22265625 29.98828125 81.22265625 28.16796875 82.00390625 C22.20243403 82.60259791 15.95765257 79.18157198 11.37109375 75.59765625 C9.04003599 73.2797683 8.4322881 71.45756328 7.98828125 68.22265625 C8.44022826 66.2857405 8.90005768 64.3484761 9.46484375 62.44140625 C10.56814538 57.7647247 10.8498578 52.52556181 9.15234375 47.98828125 C8.04194138 45.91489416 8.04194138 45.91489416 5.11328125 45.22265625 C1.95172336 44.90967725 1.95172336 44.90967725 -0.18359375 46.85546875 C-3.46190745 51.1004647 -2.49365599 56.09346707 -2.01171875 61.22265625 C-1.10057339 64.54451796 -1.10057339 64.54451796 -0.01171875 67.22265625 C0.55078125 69.72265625 0.55078125 69.72265625 -0.01171875 72.22265625 C-4.10213877 77.14394284 -9.93353856 80.39705443 -16.01171875 82.22265625 C-18.78515625 82.32421875 -18.78515625 82.32421875 -21.01171875 82.22265625 C-21.35783203 81.34867188 -21.35783203 81.34867188 -21.7109375 80.45703125 C-22.40571831 78.71046764 -23.10537735 76.96584055 -23.80859375 75.22265625 C-24.62509237 73.18671164 -25.4267129 71.14474936 -26.21484375 69.09765625 C-29.07753352 61.85034037 -31.26757733 56.42509238 -38.19921875 52.34765625 C-44.41229422 50.51428972 -49.62716165 50.0303777 -55.51171875 52.97265625 C-58.44060192 55.6086511 -59.73403767 57.5565698 -60.3828125 61.44921875 C-60.59627353 69.15892883 -58.49288963 75.2091704 -53.40234375 81.078125 C-46.51694141 87.47396891 -38.87823507 88.58067606 -29.76953125 89.5 C-27.01171875 90.22265625 -27.01171875 90.22265625 -25.89038086 91.91381836 C-24.86595583 94.60567374 -24.5084373 97.02247278 -24.1953125 99.88671875 C-24.00932495 101.55480591 -24.00932495 101.55480591 -23.81958008 103.2565918 C-23.63625122 105.0341687 -23.63625122 105.0341687 -23.44921875 106.84765625 C-23.31990967 108.07460205 -23.19060059 109.30154785 -23.05737305 110.56567383 C-21.49031049 125.82423113 -20.92613546 140.88871103 -20.88671875 156.22265625 C-20.88394928 156.95003998 -20.88117981 157.67742371 -20.87832642 158.42684937 C-20.87253747 160.50467138 -20.87431411 162.58233398 -20.87890625 164.66015625 C-20.88003418 165.87574219 -20.88116211 167.09132813 -20.88232422 168.34375 C-21.01171875 171.22265625 -21.01171875 171.22265625 -22.01171875 173.22265625 C-25.57378597 173.36833032 -29.13508426 173.45684821 -32.69921875 173.53515625 C-34.21032227 173.59799805 -34.21032227 173.59799805 -35.75195312 173.66210938 C-40.27251228 173.73670606 -43.15380831 173.73261822 -47.09375 171.390625 C-49.84921682 166.8393346 -50.33742243 162.44394765 -51.01171875 157.22265625 C-52.37086487 148.23910033 -54.12558635 140.48366777 -58.01171875 132.22265625 C-58.39070313 131.36027344 -58.7696875 130.49789062 -59.16015625 129.609375 C-63.4000183 120.46094783 -69.63846154 112.83088007 -76.06445312 105.15185547 C-95.41559687 82.01033496 -109.83576053 56.78249062 -107.68237305 25.5925293 C-106.68620298 14.66595183 -104.70205457 2.24351189 -98.01171875 -6.77734375 C-95.734375 -8.03515625 -95.734375 -8.03515625 -93.07421875 -8.90234375 C-92.10097656 -9.22074219 -91.12773438 -9.53914062 -90.125 -9.8671875 C-58.64629964 -19.06986904 -28.50737548 -15.77787761 0 0 Z " fill="#EE9735" transform="translate(211.01171875,183.77734375)"/>
<path d="M0 0 C1.02319336 0.42837158 2.04638672 0.85674316 3.10058594 1.2980957 C4.2043457 1.77335693 5.30810547 2.24861816 6.4453125 2.73828125 C8.27139486 3.50326504 10.09750662 4.26818288 11.92480469 5.03025818 C13.20529596 5.56440873 14.4852354 6.09988389 15.76464844 6.63661194 C21.92985286 9.21866811 28.14410355 11.66976014 34.37011719 14.10134888 C51.28705982 20.71072085 68.1438756 27.47007319 85.00253296 34.22637939 C97.47668727 39.22503652 109.95408615 44.21434262 122.45703125 49.140625 C123.45897522 49.53555145 124.46091919 49.93047791 125.4932251 50.33737183 C130.17663943 52.1825333 134.86145869 54.02401458 139.54833984 55.86035156 C141.20282414 56.51100502 142.85728519 57.16171755 144.51171875 57.8125 C145.24662033 58.09898911 145.98152191 58.38547821 146.73869324 58.6806488 C157.40278011 62.88324886 157.40278011 62.88324886 160.5703125 66.05078125 C160.47265625 68.515625 160.47265625 68.515625 159.5703125 71.05078125 C157.63671875 72.4921875 157.63671875 72.4921875 155.1328125 73.61328125 C153.92818359 74.17208984 153.92818359 74.17208984 152.69921875 74.7421875 C148.34423708 76.56355936 143.95320054 78.29762603 139.5703125 80.05078125 C139.2403125 91.60078125 138.9103125 103.15078125 138.5703125 115.05078125 C139.8903125 115.71078125 141.2103125 116.37078125 142.5703125 117.05078125 C144.67609328 118.93094266 145.46084241 120.34647968 145.89453125 123.13671875 C146.16120479 128.67249369 145.15577392 130.77135955 141.5703125 135.05078125 C141.89230104 141.44176586 145.0844777 147.15278851 147.6875 152.88671875 C149.94186917 158.02075656 151.37391613 162.4166605 151.5703125 168.05078125 C150.9103125 169.04078125 150.2503125 170.03078125 149.5703125 171.05078125 C147.0390625 171.30859375 147.0390625 171.30859375 144.0703125 171.17578125 C140.17074396 170.89515721 140.17074396 170.89515721 136.5703125 172.05078125 C133.50156934 172.19026958 130.72442749 172.07758386 127.6953125 171.55078125 C125.08766617 171.13355784 122.93346117 171.04252813 120.3203125 171.11328125 C116.5703125 171.05078125 116.5703125 171.05078125 114.5703125 169.05078125 C114.63538216 161.24242244 118.03387315 154.59206666 121.1328125 147.55078125 C121.65294922 146.34679687 122.17308594 145.1428125 122.70898438 143.90234375 C123.98697785 140.94771664 125.27426784 137.99752391 126.5703125 135.05078125 C125.9103125 135.05078125 125.2503125 135.05078125 124.5703125 135.05078125 C121.43654794 131.31436966 121.05816469 127.90808045 121.20703125 123.20703125 C121.74957873 119.98674945 123.2322852 118.25127754 125.5703125 116.05078125 C126.2303125 115.72078125 126.8903125 115.39078125 127.5703125 115.05078125 C127.5703125 105.15078125 127.5703125 95.25078125 127.5703125 85.05078125 C122.43770889 87.01992083 122.43770889 87.01992083 117.30932617 89 C116.66713135 89.24363281 116.02493652 89.48726563 115.36328125 89.73828125 C114.7086792 89.98964844 114.05407715 90.24101562 113.37963867 90.5 C111.5703125 91.05078125 111.5703125 91.05078125 108.5703125 91.05078125 C108.45816406 90.39851563 108.34601563 89.74625 108.23046875 89.07421875 C107.14353324 84.25760258 106.12533448 80.84233881 101.9453125 77.98828125 C100.17116133 76.97772475 98.37638373 76.00311708 96.5703125 75.05078125 C95.39303528 74.37107409 94.21736479 73.68857946 93.04296875 73.00390625 C68.79560513 59.19575027 41.1712655 51.29643091 13.5703125 48.05078125 C12.52230469 47.91929688 11.47429687 47.7878125 10.39453125 47.65234375 C-32.39203606 43.17397603 -76.82254793 54.1856466 -114.3046875 74.73828125 C-115.2949292 75.27255737 -115.2949292 75.27255737 -116.30517578 75.81762695 C-121.44765349 78.73053187 -124.64116741 81.63883743 -126.4921875 87.30078125 C-126.8015625 88.20828125 -127.1109375 89.11578125 -127.4296875 90.05078125 C-131.25780571 91.32682065 -132.3274674 90.53333905 -135.99609375 88.98828125 C-137.11371094 88.52421875 -138.23132813 88.06015625 -139.3828125 87.58203125 C-141.16945313 86.8240625 -141.16945313 86.8240625 -142.9921875 86.05078125 C-145.44082691 85.02855905 -147.89004801 84.00772916 -150.33984375 82.98828125 C-151.54398926 82.48554687 -152.74813477 81.9828125 -153.98876953 81.46484375 C-159.32485176 79.27195399 -164.71555394 77.22356816 -170.13500977 75.24609375 C-176.83606433 72.72395559 -176.83606433 72.72395559 -178.4296875 70.05078125 C-178.24169922 67.59838867 -178.24169922 67.59838867 -177.4296875 65.05078125 C-175.72900391 63.70825195 -175.72900391 63.70825195 -173.40625 62.6640625 C-172.49520508 62.24979004 -171.58416016 61.83551758 -170.64550781 61.40869141 C-169.58428711 60.96058105 -168.52306641 60.5124707 -167.4296875 60.05078125 C-165.62516113 59.28773682 -165.62516113 59.28773682 -163.78417969 58.50927734 C-159.47363358 56.71237467 -155.13968627 54.97514864 -150.8046875 53.23828125 C-149.1585682 52.57525697 -147.51257503 51.91191949 -145.86669922 51.24829102 C-140.72346748 49.17635851 -135.57678309 47.11309222 -130.4296875 45.05078125 C-128.8469868 44.41606153 -127.26430403 43.78129708 -125.68164062 43.14648438 C-116.78332517 39.57832397 -107.88103004 36.02017999 -98.97727966 32.46560669 C-91.47632469 29.4703864 -83.97822039 26.46807236 -76.48046875 23.46484375 C-72.81405184 21.99669012 -69.14760158 20.5286198 -65.48114014 19.06057739 C-63.11501881 18.11300596 -60.74900706 17.16516088 -58.38311768 16.2170105 C-52.86187233 14.00448788 -47.33903687 11.79619236 -41.81201172 9.59814453 C-37.50247872 7.88374991 -33.20396024 6.14472182 -28.91064453 4.39013672 C-26.84547694 3.55671996 -24.78021416 2.72353901 -22.71484375 1.890625 C-21.77829453 1.50201797 -20.8417453 1.11341095 -19.8768158 0.71302795 C-12.74825151 -2.1387819 -7.2805499 -3.11237208 0 0 Z " fill="#1F3E57" transform="translate(224.4296875,38.94921875)"/>
<path d="M0 0 C1.20336949 3.61010846 1.14330286 6.91072402 1.1328125 10.66796875 C1.13376923 11.42161209 1.13472595 12.17525543 1.13571167 12.95173645 C1.13639205 14.54798465 1.13454764 16.14423563 1.13037109 17.74047852 C1.12505809 20.16103498 1.13030147 22.58140272 1.13671875 25.00195312 C1.13605722 26.55729207 1.1347745 28.1126309 1.1328125 29.66796875 C1.13483673 30.38284958 1.13686096 31.09773041 1.13894653 31.83427429 C1.11703657 36.63336107 0.67169019 41.24714153 0 46 C-5.78052546 45.3706686 -10.97782464 43.8415486 -16.5 42.0625 C-43.93870306 33.56992725 -73.53799066 35.54798579 -99.3125 48.375 C-100.01173584 48.74512207 -100.71097168 49.11524414 -101.43139648 49.49658203 C-104.27787259 50.96215658 -106.40792232 52.02270504 -109.6484375 51.8984375 C-112.33937115 50.87033993 -114.7863035 49.63637092 -117.3125 48.25 C-144.66585498 34.37366298 -175.39973186 34.60733963 -204.19335938 43.3984375 C-206.17312326 44.02999192 -206.17312326 44.02999192 -208.703125 45.15625 C-211.28178552 46.10351305 -213.27459113 46.06099133 -216 46 C-216.22867356 39.70188412 -216.3859904 33.40484122 -216.49438477 27.10351562 C-216.53957687 24.96150721 -216.60094654 22.81977541 -216.67895508 20.67871094 C-216.78847371 17.59500985 -216.83923294 14.51498181 -216.87890625 11.4296875 C-216.92535782 10.47633514 -216.97180939 9.52298279 -217.01966858 8.54074097 C-217.02177136 5.75525667 -216.91657582 3.63409147 -216 1 C-213.30220252 -1.64867526 -210.3639592 -3.31832829 -207 -5 C-205.94296875 -5.60585937 -204.8859375 -6.21171875 -203.796875 -6.8359375 C-147.23991941 -35.40445097 -52.50273114 -45.2292863 0 0 Z " fill="#1F394F" transform="translate(323,124)"/>
<path d="M0 0 C3.33289169 1.36365372 4.63281473 1.36759584 7.98828125 0.22265625 C10.01065177 -0.73129211 12.01655085 -1.72269726 13.98828125 -2.77734375 C13.32828125 -1.45734375 12.66828125 -0.13734375 11.98828125 1.22265625 C10.99828125 1.22265625 10.00828125 1.22265625 8.98828125 1.22265625 C8.98828125 1.88265625 8.98828125 2.54265625 8.98828125 3.22265625 C5.6626626 4.98327789 4.3965413 5.33049853 0.67578125 4.34765625 C-0.21109375 3.97640625 -1.09796875 3.60515625 -2.01171875 3.22265625 C-2.01171875 2.56265625 -2.01171875 1.90265625 -2.01171875 1.22265625 C-3.00171875 0.97515625 -3.99171875 0.72765625 -5.01171875 0.47265625 C-8.66012298 -0.5580921 -11.87256624 -2.10359292 -15.21484375 -3.875 C-17.16479068 -4.90789067 -17.16479068 -4.90789067 -20.01171875 -5.77734375 C-20.32491019 -4.3816654 -20.63723663 -2.98579293 -20.94921875 -1.58984375 C-21.12324219 -0.81253906 -21.29726562 -0.03523437 -21.4765625 0.765625 C-21.65316406 1.57644531 -21.82976562 2.38726562 -22.01171875 3.22265625 C-22.26949097 4.23392578 -22.26949097 4.23392578 -22.5324707 5.265625 C-23.22005832 9.5081422 -23.19476374 13.7005128 -23.21484375 17.9921875 C-23.22054382 18.94598801 -23.2262439 19.89978851 -23.2321167 20.88249207 C-23.24155232 22.90399066 -23.24809496 24.92550455 -23.25195312 26.94702148 C-23.26156474 29.9864539 -23.29256225 33.02518196 -23.32421875 36.06445312 C-23.37896622 46.31047079 -22.95394086 55.93396001 -20.72631836 65.9519043 C-19.76583879 70.34805897 -19.32423907 74.73960615 -19.01171875 79.22265625 C-16.37171875 79.22265625 -13.73171875 79.22265625 -11.01171875 79.22265625 C-14.01789144 82.22882894 -16.83553473 81.81850941 -21.01171875 82.22265625 C-21.35783203 81.34867188 -21.35783203 81.34867188 -21.7109375 80.45703125 C-22.40571831 78.71046764 -23.10537735 76.96584055 -23.80859375 75.22265625 C-24.62509237 73.18671164 -25.4267129 71.14474936 -26.21484375 69.09765625 C-29.07753352 61.85034037 -31.26757733 56.42509238 -38.19921875 52.34765625 C-44.41229422 50.51428972 -49.62716165 50.0303777 -55.51171875 52.97265625 C-58.44060192 55.6086511 -59.73403767 57.5565698 -60.3828125 61.44921875 C-60.59627353 69.15892883 -58.49288963 75.2091704 -53.40234375 81.078125 C-46.51694141 87.47396891 -38.87823507 88.58067606 -29.76953125 89.5 C-27.01171875 90.22265625 -27.01171875 90.22265625 -25.89038086 91.91381836 C-24.86595583 94.60567374 -24.5084373 97.02247278 -24.1953125 99.88671875 C-24.00932495 101.55480591 -24.00932495 101.55480591 -23.81958008 103.2565918 C-23.63625122 105.0341687 -23.63625122 105.0341687 -23.44921875 106.84765625 C-23.31990967 108.07460205 -23.19060059 109.30154785 -23.05737305 110.56567383 C-21.49031049 125.82423113 -20.92613546 140.88871103 -20.88671875 156.22265625 C-20.88394928 156.95003998 -20.88117981 157.67742371 -20.87832642 158.42684937 C-20.87253747 160.50467138 -20.87431411 162.58233398 -20.87890625 164.66015625 C-20.88003418 165.87574219 -20.88116211 167.09132813 -20.88232422 168.34375 C-21.01171875 171.22265625 -21.01171875 171.22265625 -22.01171875 173.22265625 C-25.57378597 173.36833032 -29.13508426 173.45684821 -32.69921875 173.53515625 C-34.21032227 173.59799805 -34.21032227 173.59799805 -35.75195312 173.66210938 C-40.27251228 173.73670606 -43.15380831 173.73261822 -47.09375 171.390625 C-49.84921682 166.8393346 -50.33742243 162.44394765 -51.01171875 157.22265625 C-52.37086487 148.23910033 -54.12558635 140.48366777 -58.01171875 132.22265625 C-58.39070313 131.36027344 -58.7696875 130.49789062 -59.16015625 129.609375 C-63.4000183 120.46094783 -69.63846154 112.83088007 -76.06445312 105.15185547 C-95.41559687 82.01033496 -109.83576053 56.78249062 -107.68237305 25.5925293 C-106.68620298 14.66595183 -104.70205457 2.24351189 -98.01171875 -6.77734375 C-95.734375 -8.03515625 -95.734375 -8.03515625 -93.07421875 -8.90234375 C-92.10097656 -9.22074219 -91.12773438 -9.53914062 -90.125 -9.8671875 C-58.64629964 -19.06986904 -28.50737548 -15.77787761 0 0 Z " fill="#E86939" transform="translate(211.01171875,183.77734375)"/>
<path d="M0 0 C27.82716483 0.57754493 67.08931748 11.14685128 89 29 C90.20336949 32.61010846 90.14330286 35.91072402 90.1328125 39.66796875 C90.13376923 40.42161209 90.13472595 41.17525543 90.13571167 41.95173645 C90.13639205 43.54798465 90.13454764 45.14423563 90.13037109 46.74047852 C90.12505809 49.16103498 90.13030147 51.58140272 90.13671875 54.00195312 C90.13605722 55.55729207 90.1347745 57.1126309 90.1328125 58.66796875 C90.13483673 59.38284958 90.13686096 60.09773041 90.13894653 60.83427429 C90.11703657 65.63336107 89.67169019 70.24714153 89 75 C83.21947454 74.3706686 78.02217536 72.8415486 72.5 71.0625 C54.7994397 65.58398683 37.89831092 65.22841226 19.57543945 67.37597656 C18.3392688 67.51664551 18.3392688 67.51664551 17.078125 67.66015625 C16.33981445 67.74918213 15.60150391 67.83820801 14.84082031 67.92993164 C13 68 13 68 11 67 C3.39957749 68.55440248 -3.47409925 70.92966141 -10.08984375 74.9609375 C-12.65322031 76.35533047 -15.11060643 76.77773896 -18 77 C-19.1444778 68.82232991 -19.12823151 60.7032391 -19.09765625 52.46484375 C-19.09578768 50.97555082 -19.09436585 49.48625727 -19.09336853 47.9969635 C-19.08957789 44.10574603 -19.0797777 40.21456678 -19.06866455 36.32336426 C-19.05837559 32.34123247 -19.05385498 28.35909442 -19.04882812 24.37695312 C-19.03815181 16.5846161 -19.0205836 8.79231831 -19 1 C-12.73 1 -6.46 1 0 1 C0 0.67 0 0.34 0 0 Z " fill="#1D4462" transform="translate(234,95)"/>
<path d="M0 0 C2.32421875 1.171875 2.32421875 1.171875 4.6875 2.75 C9.00892903 5.52713457 13.15483315 7.27882678 18.06640625 8.75 C20 10 20 10 20.86328125 12.56640625 C21.03407292 16.85571716 20.40916458 20.73121366 19.625 24.9375 C16.55137215 41.57208775 16.74115815 58.51854862 16.44775391 75.37695312 C16.39631877 78.25920848 16.33908312 81.14130455 16.28125 84.0234375 C16.26767456 84.91179291 16.25409912 85.80014832 16.2401123 86.71542358 C16.11311651 92.88688349 16.11311651 92.88688349 15 94 C12.41810554 94.10091475 9.863535 94.13971499 7.28125 94.1328125 C6.12163757 94.13424759 6.12163757 94.13424759 4.93859863 94.13571167 C3.30102456 94.13639341 1.66344781 94.13453957 0.02587891 94.13037109 C-2.48931921 94.12502271 -5.00433873 94.13031626 -7.51953125 94.13671875 C-9.10677123 94.13605797 -10.6940111 94.1347768 -12.28125 94.1328125 C-13.03853394 94.13483673 -13.79581787 94.13686096 -14.5760498 94.13894653 C-19.88504868 94.11495132 -19.88504868 94.11495132 -21 93 C-21.13633505 90.63935184 -21.21113766 88.30424098 -21.24609375 85.94140625 C-21.27764956 84.43773858 -21.30948088 82.93407667 -21.34155273 81.43041992 C-21.35693085 80.63606537 -21.37230896 79.84171082 -21.38815308 79.02328491 C-21.79182209 58.89350705 -22.59519592 38.78690675 -25.6328125 18.85546875 C-26.32620302 13.463251 -26.32620302 13.463251 -26 11 C-23.29861569 8.25422674 -20.23659058 7.24107228 -16.625 6.0625 C-13.30171725 4.91791192 -10.45807801 3.83791947 -7.625 1.75 C-4.6032054 -0.26452973 -3.54554123 -0.37931496 0 0 Z " fill="#ED9534" transform="translate(218,263)"/>
<path d="M0 0 C0.83483414 -0.00335861 1.66966827 -0.00671722 2.52980042 -0.01017761 C5.28387957 -0.01965945 8.03789773 -0.02162949 10.79199219 -0.02270508 C12.71384709 -0.02592012 14.63570176 -0.02928438 16.55755615 -0.03279114 C20.58573982 -0.03877587 24.61390205 -0.04063176 28.64208984 -0.04003906 C33.78764075 -0.0399376 38.93305318 -0.0535761 44.07857132 -0.07081127 C48.04899722 -0.08196642 52.01939005 -0.08395717 55.98983002 -0.08342934 C57.88591742 -0.08460468 59.78200581 -0.08900129 61.6780777 -0.0967617 C64.3388672 -0.10663052 66.99936133 -0.10365631 69.66015625 -0.09765625 C70.43345779 -0.10327576 71.20675934 -0.10889526 72.00349426 -0.11468506 C77.31163872 -0.08448209 82.54088704 0.40353325 87.58886719 2.14526367 C89.71386719 4.33276367 89.71386719 4.33276367 90.58886719 7.14526367 C90.52217781 10.94655805 90.25573387 13.2516984 87.96435547 16.32202148 C84.75691165 18.78380879 82.66757334 18.68735604 78.64355469 18.75463867 C77.59010109 18.77957901 77.59010109 18.77957901 76.5153656 18.80502319 C74.16476919 18.85484319 71.81489515 18.87553757 69.46386719 18.89526367 C67.8013313 18.92257813 66.13881471 18.95108969 64.47631836 18.98071289 C58.84733518 19.07069751 53.21842254 19.11032479 47.58886719 19.14526367 C46.52996277 19.15279663 45.47105835 19.16032959 44.38006592 19.16809082 C36.55384855 19.22274984 28.72775534 19.25444901 20.90136719 19.27026367 C19.27844757 19.27455383 19.27844757 19.27455383 17.6227417 19.27893066 C14.50334167 19.28473949 11.38404855 19.28279273 8.26464844 19.27807617 C7.34824081 19.28003998 6.43183319 19.28200378 5.48765564 19.2840271 C0.85578832 19.26773257 -3.75382206 19.1200848 -8.37524414 18.80102539 C-9.26214432 18.73986542 -10.14904449 18.67870544 -11.06282043 18.61569214 C-13.70725725 18.08594219 -14.80888762 17.45447295 -16.66113281 15.52026367 C-18.81105714 11.37398104 -18.80429982 9.57061769 -17.41113281 5.14526367 C-15.54139473 2.60776199 -14.3405743 1.4056406 -11.29620361 0.55278015 C-7.52644695 0.02030172 -3.79854048 -0.00220303 0 0 Z " fill="#1C4563" transform="translate(179.4111328125,390.854736328125)"/>
<path d="M0 0 C10.19725149 -0.12354148 20.39372831 -0.16110794 30.59165955 -0.15998077 C34.78424524 -0.15987753 38.97666771 -0.17374152 43.16921425 -0.19075298 C46.43087027 -0.20185465 49.6924858 -0.20390086 52.95415878 -0.20337105 C54.50187641 -0.20454573 56.04959526 -0.20893859 57.59729385 -0.21670341 C59.74446278 -0.22650457 61.89126198 -0.22362949 64.03843689 -0.21759796 C65.86297897 -0.21973549 65.86297897 -0.21973549 67.72438049 -0.2219162 C71.851478 0.09518101 74.75465972 0.87868743 77.75474548 3.77532196 C79.37903218 6.8529178 79.49330416 8.5812052 78.94224548 12.02532196 C75.13212535 17.74413576 75.13212535 17.74413576 70.69987488 18.79154205 C68.85773407 18.8027282 68.85773407 18.8027282 66.9783783 18.81414032 C66.29604126 18.82637634 65.61370422 18.83861237 64.91069031 18.85121918 C62.65487466 18.88438828 60.4013752 18.87514563 58.14537048 18.86516571 C56.55328631 18.87899008 54.96122181 18.89527588 53.3691864 18.91388702 C49.1634698 18.95565797 44.95844018 18.96075829 40.75254822 18.95915985 C36.5681657 18.96514495 32.38422552 19.01062371 28.20005798 19.05071259 C19.49219409 19.12522593 10.78682731 19.10495299 2.07899475 19.03846741 C0.02415403 19.02582587 -2.03046719 19.02267367 -4.08534241 19.02269745 C-7.60346574 19.01465244 -11.11837574 18.96741012 -14.63587952 18.90422821 C-15.63931396 18.90672073 -16.64274841 18.90921326 -17.67658997 18.91178131 C-24.08955465 18.72747837 -24.08955465 18.72747837 -26.80397034 16.75893402 C-29.3701445 13.89839538 -30.05364944 12.26341627 -30.12025452 8.40032196 C-28.91797255 4.58130865 -28.27359829 3.36635407 -25.05775452 1.02532196 C-21.93973094 0.3477973 -18.84172077 0.33330276 -15.65931702 0.28704071 C-14.66840057 0.25873672 -13.67748413 0.23043274 -12.65653992 0.20127106 C-8.43796769 0.09673241 -4.21947683 0.05192331 0 0 Z " fill="#1D425D" transform="translate(191.05775451660156,364.9746780395508)"/>
<path d="M0 0 C1.31016083 0.00444122 2.62032166 0.00888245 3.97018433 0.01345825 C4.6922406 0.0131662 5.41429687 0.01287415 6.15823364 0.01257324 C8.54993621 0.01396895 10.94132901 0.0295412 13.33297729 0.04519653 C14.98921539 0.04892581 16.64545569 0.05177319 18.30169678 0.05377197 C22.6648872 0.06141514 27.02794486 0.08106944 31.39108276 0.10317993 C35.84174809 0.12362368 40.29243482 0.13277054 44.74313354 0.14285278 C53.47887161 0.16431474 62.2145017 0.19845885 70.95016479 0.24050903 C72.36454201 5.03613178 70.8344984 7.39640614 68.53219604 11.70925903 C63.07635588 20.43860329 54.56637012 26.04434559 44.71188354 28.67019653 C31.59267713 31.37939616 20.45670736 30.17759049 9.13375854 22.76785278 C8.41317261 22.26382935 7.69258667 21.75980591 6.95016479 21.24050903 C6.36364136 20.8499231 5.77711792 20.45933716 5.17282104 20.05691528 C0.0352259 16.2788873 -3.07803998 10.6293334 -4.81155396 4.58425903 C-4.89018677 3.81082153 -4.96881958 3.03738403 -5.04983521 2.24050903 C-3.04983521 0.24050903 -3.04983521 0.24050903 0 0 Z " fill="#1F425C" transform="translate(182.04983520507813,416.7594909667969)"/>
<path d="M0 0 C0.33 0.66 0.66 1.32 1 2 C21.13 2 41.26 2 62 2 C62 2.33 62 2.66 62 3 C50.12 3 38.24 3 26 3 C26 7.29 26 11.58 26 16 C42.17 16 58.34 16 75 16 C75 16.33 75 16.66 75 17 C62.45649446 17.11587595 49.91311636 17.20470673 37.36918449 17.25906086 C31.54443322 17.28514888 25.72004826 17.32053335 19.89550781 17.37719727 C14.27394131 17.431544 8.65272706 17.46142652 3.03091812 17.47438622 C0.88668396 17.48362121 -1.25753103 17.50165514 -3.40161514 17.52865028 C-6.40635001 17.56497518 -9.40963149 17.5699438 -12.41455078 17.56762695 C-13.30000076 17.58560333 -14.18545074 17.60357971 -15.09773254 17.62210083 C-19.32450923 17.58686156 -22.17895836 17.31499488 -25.59127808 14.68717957 C-28 12 -28 12 -28.125 8.4375 C-26.90907029 4.72215922 -26.00417059 3.41445824 -23 1 C-20.43457031 0.45410156 -20.43457031 0.45410156 -17.578125 0.390625 C-16.55332031 0.35839844 -15.52851563 0.32617188 -14.47265625 0.29296875 C-13.40917969 0.27878906 -12.34570312 0.26460938 -11.25 0.25 C-10.17105469 0.22035156 -9.09210938 0.19070313 -7.98046875 0.16015625 C-5.32023756 0.08953064 -2.66087898 0.03679804 0 0 Z " fill="#192F44" transform="translate(189,365)"/>
<path d="M0 0 C12.21 0 24.42 0 37 0 C37 8.58 37 17.16 37 26 C39.64 26 42.28 26 45 26 C37.88746051 29.55626975 32.19920673 29.34422284 24.37109375 27.3203125 C13.53482109 23.38933719 4.87319589 16.57033742 -0.375 6.3125 C-1 4 -1 4 0 0 Z " fill="#1D364B" transform="translate(178,418)"/>
<path d="M0 0 C0 0.66 0 1.32 0 2 C14.52 2 29.04 2 44 2 C43.67 2.66 43.34 3.32 43 4 C42.67 8.29 42.34 12.58 42 17 C29.79 17 17.58 17 5 17 C4.67 17.66 4.34 18.32 4 19 C-5.42866579 18.9669749 -5.42866579 18.9669749 -8.87890625 16.84375 C-11.46643643 14.0719228 -11.99786162 12.12402611 -12.0625 8.375 C-10.91192903 4.72024515 -10.0856514 3.22852601 -7 1 C-4.55509884 0.30145681 -2.53137274 0 0 0 Z " fill="#1D3247" transform="translate(173,391)"/>
<path d="M0 0 C6.42641028 3.08467694 9.50145554 8.14659996 12.01171875 14.6015625 C14.3819416 21.87310591 14.3819416 21.87310591 13 26 C6.33330821 26.72464041 1.579169 24.61227552 -4 21 C-8.37856252 17.11020725 -10.66737716 12.7164199 -11.375 6.9375 C-11 4 -11 4 -9.4375 1.625 C-6.03503891 -0.64330739 -4.02281242 -0.55487068 0 0 Z " fill="#E86A3A" transform="translate(168,241)"/>
<path d="M0 0 C2.375 1.5625 2.375 1.5625 4 4 C4.67623132 9.21664163 3.88449001 12.62674096 1 17 C-4.01647271 22.31460933 -9.42547116 25.76938524 -16.875 26.25 C-20 26 -20 26 -21 25 C-20.69928205 16.73025645 -17.64723064 9.44004408 -11.875 3.4375 C-7.95299852 0.11232483 -5.06299575 -0.51663222 0 0 Z " fill="#EB9532" transform="translate(270,241)"/>
<path d="M0 0 C0.66 0 1.32 0 2 0 C2.33 18.15 2.66 36.3 3 55 C14.22287876 56.13814996 14.22287876 56.13814996 25 54 C25.05398987 51.72942623 25.09278742 49.45848712 25.125 47.1875 C25.14820313 45.92292969 25.17140625 44.65835938 25.1953125 43.35546875 C25.27581918 39.8661976 25.27581918 39.8661976 23 37 C23.875 33.3125 23.875 33.3125 25 30 C25.66 30.66 26.32 31.32 27 32 C27.20625 31.0925 27.4125 30.185 27.625 29.25 C29.2396844 23.49175049 32.2445256 18.27699342 35 13 C35.66 13.33 36.32 13.66 37 14 C36.06241071 16.85860556 35.11555482 19.69965104 34.03515625 22.5078125 C31.28008769 29.9210492 30.0531983 37.23966937 29.12719727 45.05712891 C28.53811745 49.68219539 27.97126404 53.2296185 25 57 C18.22442093 61.51705271 7.77727951 60.40246024 0 59 C-2 57 -2 57 -2.20927429 55.17655945 C-2.19008438 54.43855606 -2.17089447 53.70055267 -2.15112305 52.94018555 C-2.13417892 52.10138351 -2.1172348 51.26258148 -2.09977722 50.39836121 C-2.07071793 49.4870192 -2.04165863 48.57567719 -2.01171875 47.63671875 C-1.98906448 46.69375443 -1.96641022 45.7507901 -1.94306946 44.7792511 C-1.8930059 42.77417735 -1.83802461 40.76922139 -1.77856445 38.7644043 C-1.68900327 35.73829273 -1.61356596 32.71210901 -1.54101562 29.68554688 C-1.28839117 19.76365214 -0.93996396 9.88436375 0 0 Z " fill="#D59243" transform="translate(242,298)"/>
<path d="M0 0 C9.30126381 -0.04636675 18.60248775 -0.08189126 27.90384197 -0.10362434 C32.22296421 -0.1140558 36.5420073 -0.12820337 40.86108398 -0.15087891 C45.03023366 -0.17263001 49.19930725 -0.18457343 53.36850929 -0.18975449 C54.95809946 -0.19344617 56.54768554 -0.2006551 58.13724327 -0.21146011 C60.36591931 -0.22600526 62.59428208 -0.22797669 64.82299805 -0.22705078 C66.09096725 -0.231492 67.35893646 -0.23593323 68.66532898 -0.24050903 C72.85572796 0.06171832 75.7671571 0.80966892 78.8125 3.75 C80.43678669 6.82759584 80.55105868 8.55588324 80 12 C76.18987986 17.7188138 76.18987986 17.7188138 71.75762939 18.76622009 C69.91548859 18.77740623 69.91548859 18.77740623 68.03613281 18.78881836 C67.35379578 18.80105438 66.67145874 18.81329041 65.96844482 18.82589722 C63.71262917 18.85906632 61.45912972 18.84982367 59.203125 18.83984375 C57.61104083 18.85366812 56.01897633 18.86995392 54.42694092 18.88856506 C50.22122432 18.93033601 46.01619469 18.93543633 41.81030273 18.93383789 C38.45228085 18.93864101 35.09475428 18.96946643 31.73690033 19.00166893 C21.49026871 19.09971607 11.24662321 19.09392093 1 19 C-0.01820328 18.99161983 -0.01820328 18.99161983 -1.05697632 18.98307037 C-5.25291709 18.94522048 -9.44599831 18.86386949 -13.640625 18.75390625 C-14.65243835 18.73964096 -15.66425171 18.72537567 -16.70672607 18.7106781 C-23.38914755 18.47233473 -23.38914755 18.47233473 -26.64746094 15.95288086 C-27.09379883 15.30843018 -27.54013672 14.66397949 -28 14 C-27.67 13.34 -27.34 12.68 -27 12 C-26.51878189 12.64997955 -26.03756378 13.29995911 -25.54176331 13.96963501 C-21.97381751 16.81971637 -18.70422814 16.54558888 -14.33178711 16.48583984 C-13.45820053 16.48963654 -12.58461395 16.49343323 -11.68455505 16.49734497 C-8.79845215 16.5047514 -5.9133571 16.48336846 -3.02734375 16.4609375 C-1.02242654 16.45855323 0.98249293 16.45764772 2.9874115 16.4581604 C7.18812049 16.45503233 11.38848818 16.43846516 15.58911133 16.41162109 C20.97857622 16.37761945 26.3676664 16.36999313 31.75722599 16.37151146 C35.89643442 16.37096813 40.03556063 16.36000733 44.17474174 16.34550858 C46.16230077 16.33913657 48.14986913 16.33520074 50.13743782 16.33372116 C52.91218122 16.32939369 55.68652405 16.31190526 58.46118164 16.29052734 C59.2856781 16.29143372 60.11017456 16.29234009 60.95965576 16.29327393 C64.82428758 16.24964709 66.70973227 16.19351182 70 14 C73.1875 13.875 73.1875 13.875 76 14 C76.29562367 8.67829506 76.29562367 8.67829506 74 4 C62.24907474 1.23600726 48.42491871 2.92563746 36.4375 3 C32.10286651 3.02684577 27.76828013 3.04671438 23.43359375 3.0625 C22.4644957 3.07079834 21.49539764 3.07909668 20.49693298 3.08764648 C13.61884429 3.1118642 6.84461477 2.66675434 0 2 C0 1.34 0 0.68 0 0 Z " fill="#303F4E" transform="translate(190,365)"/>
<path d="M0 0 C0.66 0.33 1.32 0.66 2 1 C1.67 1.33 1.34 1.66 1 2 C1.04009162 8.12399526 1.64910423 14.25363873 2.73828125 20.27734375 C6.28488554 40.6591756 5.24556751 61.39051921 5 82 C15.56 82 26.12 82 37 82 C37.33 68.47 37.66 54.94 38 41 C38.66 41 39.32 41 40 41 C40.02464513 47.1055471 40.04283371 53.21106551 40.05493164 59.31665039 C40.05997288 61.39543156 40.06680574 63.47420916 40.07543945 65.55297852 C40.08751422 68.53402586 40.09323024 71.51502649 40.09765625 74.49609375 C40.10281754 75.43150497 40.10797882 76.3669162 40.11329651 77.33067322 C40.11337204 78.19149002 40.11344757 79.05230682 40.11352539 79.93920898 C40.115746 80.70087875 40.11796661 81.46254852 40.12025452 82.24729919 C40 84 40 84 39 85 C36.41810554 85.10091475 33.863535 85.13971499 31.28125 85.1328125 C30.12163757 85.13424759 30.12163757 85.13424759 28.93859863 85.13571167 C27.30102456 85.13639341 25.66344781 85.13453957 24.02587891 85.13037109 C21.51068079 85.12502271 18.99566127 85.13031626 16.48046875 85.13671875 C14.89322877 85.13605797 13.3059889 85.1347768 11.71875 85.1328125 C10.96146606 85.13483673 10.20418213 85.13686096 9.4239502 85.13894653 C4.11495132 85.11495132 4.11495132 85.11495132 3 84 C2.86366495 81.63935184 2.78886234 79.30424098 2.75390625 76.94140625 C2.72235044 75.43773858 2.69051912 73.93407667 2.65844727 72.43041992 C2.64306915 71.63606537 2.62769104 70.84171082 2.61184692 70.02328491 C2.20817791 49.89350705 1.40480408 29.78690675 -1.6328125 9.85546875 C-1.97847537 7.16738836 -2.21695706 4.70253039 -2 2 C-1.34 1.34 -0.68 0.68 0 0 Z " fill="#C06B43" transform="translate(194,272)"/>
<path d="M0 0 C0.33 0.66 0.66 1.32 1 2 C0.0925 2.598125 -0.815 3.19625 -1.75 3.8125 C-4.8893965 5.83620328 -4.8893965 5.83620328 -7.125 7.8125 C-7.74375 8.204375 -8.3625 8.59625 -9 9 C-9.61875 8.835 -10.2375 8.67 -10.875 8.5 C-13.16786836 7.76422983 -13.16786836 7.76422983 -16 9 C-19.85716662 11.57144441 -20.97655679 13.87528884 -23 18 C-22.28714844 18.18175781 -21.57429688 18.36351563 -20.83984375 18.55078125 C-12.05342774 20.85677199 -12.05342774 20.85677199 -8.125 22.625 C-5.35695179 23.84294121 -2.97420037 24.54936358 0 25 C0 25.66 0 26.32 0 27 C1.58086048 27.36504603 3.16483907 27.71660506 4.75 28.0625 C6.07257813 28.35833984 6.07257813 28.35833984 7.421875 28.66015625 C9.98679028 28.99825872 11.57091639 28.81158635 14 28 C14 28.66 14 29.32 14 30 C16.44480079 29.81171228 16.44480079 29.81171228 19 29 C20.36020151 27.03241727 20.36020151 27.03241727 21 25 C21.66 25 22.32 25 23 25 C22.34 28.63 21.68 32.26 21 36 C17.17188179 37.2760394 16.1022201 36.4825578 12.43359375 34.9375 C11.31597656 34.4734375 10.19835937 34.009375 9.046875 33.53125 C7.85578125 33.0259375 6.6646875 32.520625 5.4375 32 C2.98886059 30.9777778 0.53963949 29.95694791 -1.91015625 28.9375 C-3.71637451 28.18339844 -3.71637451 28.18339844 -5.55908203 27.4140625 C-10.89516426 25.22117274 -16.28586644 23.17278691 -21.70532227 21.1953125 C-28.40637683 18.67317434 -28.40637683 18.67317434 -30 16 C-29.984375 13.48046875 -29.984375 13.48046875 -29 11 C-26.890625 9.48828125 -26.890625 9.48828125 -24.25 8.3125 C-22.95835938 7.71888672 -22.95835938 7.71888672 -21.640625 7.11328125 C-14.05104237 3.91353118 -14.05104237 3.91353118 -10.0625 3 C-6.63711929 2.18102852 -3.32656369 1.16429729 0 0 Z " fill="#313E4C" transform="translate(76,93)"/>
<path d="M0 0 C2.4375 0.625 2.4375 0.625 5 2 C6.11310602 5.33931807 6.17562142 7.35605479 5.25 10.75 C4 13 4 13 1 15 C-2.05126953 15.31884766 -2.05126953 15.31884766 -5.8828125 15.4140625 C-6.58976257 15.43347397 -7.29671265 15.45288544 -8.02508545 15.47288513 C-10.39159881 15.53405621 -12.75812715 15.58002134 -15.125 15.625 C-16.7866248 15.66316918 -18.44824582 15.70150284 -20.10986328 15.73999023 C-42.06881427 16.20946279 -64.0376008 16.0894795 -86 16 C-86 15.34 -86 14.68 -86 14 C-73.79 14 -61.58 14 -49 14 C-48.67 12.68 -48.34 11.36 -48 10 C-47.505 10.495 -47.505 10.495 -47 11 C-45.5678957 11.09813311 -44.13101853 11.12798274 -42.69555664 11.12939453 C-41.78113297 11.13254669 -40.86670929 11.13569885 -39.92457581 11.13894653 C-38.92981735 11.1369223 -37.9350589 11.13489807 -36.91015625 11.1328125 C-35.38786659 11.13424759 -35.38786659 11.13424759 -33.83482361 11.13571167 C-31.68358295 11.13639368 -29.53234025 11.13453798 -27.38110352 11.13037109 C-24.08019398 11.12502864 -20.77942086 11.13031257 -17.47851562 11.13671875 C-15.39322886 11.13605786 -13.30794219 11.13477648 -11.22265625 11.1328125 C-9.73355492 11.13584885 -9.73355492 11.13584885 -8.21437073 11.13894653 C-6.83800697 11.13421829 -6.83800697 11.13421829 -5.43383789 11.12939453 C-4.62411026 11.12859894 -3.81438263 11.12780334 -2.9801178 11.12698364 C-0.92387086 11.12404184 -0.92387086 11.12404184 1 10 C1.11320856 4.91696314 1.11320856 4.91696314 0 0 Z " fill="#324559" transform="translate(264,394)"/>
<path d="M0 0 C27.39 0 54.78 0 83 0 C83 0.66 83 1.32 83 2 C84.65 2 86.3 2 88 2 C88 2.33 88 2.66 88 3 C56.28621117 4.83657929 56.28621117 4.83657929 47.91308594 3.51147461 C43.15931002 2.89011446 38.4803264 2.76999481 33.69140625 2.68359375 C32.72468491 2.66281265 31.75796356 2.64203156 30.76194763 2.62062073 C27.69553242 2.55561009 24.62903678 2.49646723 21.5625 2.4375 C19.4746013 2.3942686 17.38671051 2.35065288 15.29882812 2.30664062 C10.19929967 2.19997885 5.09969089 2.09857691 0 2 C0 1.34 0 0.68 0 0 Z " fill="#304356" transform="translate(173,391)"/>
<path d="M0 0 C1.32 0.66 2.64 1.32 4 2 C4.34548714 8.33393082 3.29342747 13.10261508 1 19 C0.34 19 -0.32 19 -1 19 C-1.103125 19.5775 -1.20625 20.155 -1.3125 20.75 C-2.11649921 23.38127015 -3.13067515 24.98688093 -5 27 C-5.99 27 -6.98 27 -8 27 C-8 27.66 -8 28.32 -8 29 C-8.66 29 -9.32 29 -10 29 C-10 29.66 -10 30.32 -10 31 C-10.63808594 31.12117188 -11.27617187 31.24234375 -11.93359375 31.3671875 C-12.75988281 31.53476562 -13.58617187 31.70234375 -14.4375 31.875 C-15.67306641 32.11863281 -15.67306641 32.11863281 -16.93359375 32.3671875 C-17.61550781 32.57601562 -18.29742187 32.78484375 -19 33 C-19.33 33.66 -19.66 34.32 -20 35 C-22.97 34.67 -25.94 34.34 -29 34 C-29 34.66 -29 35.32 -29 36 C-29.66 36 -30.32 36 -31 36 C-31 36.66 -31 37.32 -31 38 C-31.66 38 -32.32 38 -33 38 C-33.33 43.28 -33.66 48.56 -34 54 C-34.99 54 -35.98 54 -37 54 C-37.43230491 46.65081658 -35.81774185 40.09784913 -34 33 C-30.73498238 32.0353357 -27.51421033 31.1075426 -24.1796875 30.41015625 C-15.29299941 28.48963159 -8.08611981 25.69526118 -3 17.8125 C-0.58603889 13.56292263 0.11994975 10.19572841 0.0625 5.3125 C0.05347656 4.31863281 0.04445313 3.32476562 0.03515625 2.30078125 C0.02355469 1.54152344 0.01195312 0.78226563 0 0 Z " fill="#D79651" transform="translate(280,242)"/>
<path d="M0 0 C0 0.66 0 1.32 0 2 C-0.80824219 2.19335938 -1.61648437 2.38671875 -2.44921875 2.5859375 C-3.51785156 2.84632813 -4.58648437 3.10671875 -5.6875 3.375 C-6.74324219 3.63023437 -7.79898438 3.88546875 -8.88671875 4.1484375 C-13.08078943 5.23582403 -13.08078943 5.23582403 -17 7 C-18.14399406 9.48084126 -18.14399406 9.48084126 -18.625 12.375 C-19.71565997 17.62999804 -19.71565997 17.62999804 -21.54296875 20.0078125 C-24.59783791 24.18471135 -23.83685932 29.98637941 -24 35 C-24.03254883 35.73879395 -24.06509766 36.47758789 -24.09863281 37.23876953 C-24.49571105 46.92707742 -24.13609615 56.20892352 -22.3125 65.75 C-22.16401611 66.55896729 -22.01553223 67.36793457 -21.86254883 68.20141602 C-20.79082894 73.2361412 -19.04011582 77.05902954 -16.140625 81.31274414 C-13.53376509 85.16891041 -12.73640792 88.38713857 -13 93 C-16.58359739 88.96746843 -18.58005941 84.94058769 -20.5625 80 C-20.86623535 79.2474292 -21.1699707 78.4948584 -21.48291016 77.71948242 C-30.06238368 55.8721845 -30.19781753 31.67082231 -21 10 C-19.45321588 6.75083808 -18.65606865 5.34055472 -15.44140625 3.671875 C-14.49136719 3.36765625 -13.54132813 3.0634375 -12.5625 2.75 C-11.14130859 2.27820313 -11.14130859 2.27820313 -9.69140625 1.796875 C-6.30457325 0.79409716 -3.54585104 0 0 0 Z " fill="#C6654E" transform="translate(131,172)"/>
<path d="M0 0 C6.55014305 0.31191157 12.57941502 1.50051695 18.875 3.25 C19.61226318 3.44231201 20.34952637 3.63462402 21.10913086 3.83276367 C25.86807762 5.21681812 28.35993898 6.59176878 31 11 C32.21549875 13.5975138 33.22253231 16.23809687 34.1875 18.9375 C34.44724609 19.62779297 34.70699219 20.31808594 34.97460938 21.02929688 C41.01413576 37.49363884 39.48296108 57.57559426 34 74 C33.67 74 33.34 74 33 74 C32.83893174 69.65115686 32.94594954 65.91112475 34 61.6875 C37.2253601 46.44884213 34.78436021 31.20953592 29.8671875 16.64453125 C29 14 29 14 29 12 C28.34 12 27.68 12 27 12 C26.67 10.35 26.34 8.7 26 7 C25.12859375 6.89042969 24.2571875 6.78085938 23.359375 6.66796875 C15.40429817 5.60901372 7.73816576 4.12586971 0 2 C0 1.34 0 0.68 0 0 Z " fill="#CC924E" transform="translate(289,170)"/>
<path d="M0 0 C2.33223736 3.49835604 3.15245549 6.91404733 4.125 10.9375 C4.30675781 11.65357422 4.48851562 12.36964844 4.67578125 13.10742188 C5.52085109 16.53535554 6 19.44772031 6 23 C6.66 23 7.32 23 8 23 C8.13277344 23.67546875 8.26554688 24.3509375 8.40234375 25.046875 C8.57894531 25.93890625 8.75554687 26.8309375 8.9375 27.75 C9.11152344 28.63171875 9.28554687 29.5134375 9.46484375 30.421875 C9.64144531 31.27265625 9.81804687 32.1234375 10 33 C10.14566406 33.74765625 10.29132813 34.4953125 10.44140625 35.265625 C10.71791016 36.12414062 10.71791016 36.12414062 11 37 C11.66 37.33 12.32 37.66 13 38 C8.71 37.67 4.42 37.34 0 37 C0 24.79 0 12.58 0 0 Z " fill="#DF6F36" transform="translate(199,317)"/>
<path d="M0 0 C3.33289169 1.36365372 4.63281473 1.36759584 7.98828125 0.22265625 C10.01065177 -0.73129211 12.01655085 -1.72269726 13.98828125 -2.77734375 C13.32828125 -1.45734375 12.66828125 -0.13734375 11.98828125 1.22265625 C10.99828125 1.22265625 10.00828125 1.22265625 8.98828125 1.22265625 C8.98828125 1.88265625 8.98828125 2.54265625 8.98828125 3.22265625 C5.6626626 4.98327789 4.3965413 5.33049853 0.67578125 4.34765625 C-0.21109375 3.97640625 -1.09796875 3.60515625 -2.01171875 3.22265625 C-2.01171875 2.56265625 -2.01171875 1.90265625 -2.01171875 1.22265625 C-3.00171875 0.97515625 -3.99171875 0.72765625 -5.01171875 0.47265625 C-8.52113735 -0.52498089 -11.61006334 -1.96870391 -14.82421875 -3.6796875 C-21.24946036 -6.90378195 -26.84417231 -8.47608063 -33.94921875 -9.46484375 C-34.82384766 -9.59439453 -35.69847656 -9.72394531 -36.59960938 -9.85742188 C-38.73573861 -10.17258848 -40.8735723 -10.47616628 -43.01171875 -10.77734375 C-43.01171875 -11.43734375 -43.01171875 -12.09734375 -43.01171875 -12.77734375 C-54.89171875 -12.44734375 -66.77171875 -12.11734375 -79.01171875 -11.77734375 C-55.54292243 -23.51174191 -21.31731839 -11.79842181 0 0 Z " fill="#BC6A50" transform="translate(211.01171875,183.77734375)"/>
<path d="M0 0 C2.32421875 1.171875 2.32421875 1.171875 4.6875 2.75 C9.00892903 5.52713457 13.15483315 7.27882678 18.06640625 8.75 C20 10 20 10 20.86328125 12.5625 C21.0347309 16.87323403 20.40361335 20.77147818 19.625 25 C18.24528187 33.00983569 17.38444865 40.87355093 17 49 C16.34 48.67 15.68 48.34 15 48 C14.94159776 43.81255925 14.90626834 39.62522435 14.875 35.4375 C14.85824219 34.25607422 14.84148437 33.07464844 14.82421875 31.85742188 C14.7905415 25.84603241 14.88961106 20.65816878 17 15 C16.505 14.54625 16.01 14.0925 15.5 13.625 C14 12 14 12 14 10 C11.36 9.34 8.72 8.68 6 8 C6 7.34 6 6.68 6 6 C4.02 6.33 2.04 6.66 0 7 C-0.66 6.01 -1.32 5.02 -2 4 C-6.455 4.495 -6.455 4.495 -11 5 C-7.28025479 1.28025479 -5.2813537 -0.60177344 0 0 Z " fill="#D99549" transform="translate(218,263)"/>
<path d="M0 0 C0.33 0 0.66 0 1 0 C1 11.88 1 23.76 1 36 C0.01 36.495 0.01 36.495 -1 37 C-2.90079664 32.98464932 -3.23570807 29.81003409 -3.1953125 25.38671875 C-3.18886719 24.13955078 -3.18242187 22.89238281 -3.17578125 21.60742188 C-3.15902344 20.31384766 -3.14226562 19.02027344 -3.125 17.6875 C-3.11597656 16.37458984 -3.10695313 15.06167969 -3.09765625 13.70898438 C-3.07411797 10.47247087 -3.0412352 7.23632851 -3 4 C-3.66 4 -4.32 4 -5 4 C-5 14.89 -5 25.78 -5 37 C-6.98 37.495 -6.98 37.495 -9 38 C-9 38.66 -9 39.32 -9 40 C-10.485 40.495 -10.485 40.495 -12 41 C-10.63016497 37.83884224 -10.0109362 37.0072908 -7 35 C-6.58166222 31.89360445 -6.58166222 31.89360445 -6.70703125 28.2421875 C-6.71127609 27.57913605 -6.71552094 26.91608459 -6.71989441 26.23294067 C-6.73670029 24.11321559 -6.77435299 21.99443812 -6.8125 19.875 C-6.82754451 18.43881581 -6.84123332 17.00261672 -6.85351562 15.56640625 C-6.8866091 12.04396236 -6.9384032 8.52207364 -7 5 C-8.98 5.33 -10.96 5.66 -13 6 C-9.375 3 -9.375 3 -6 3 C-5.67 2.34 -5.34 1.68 -5 1 C-5 1.66 -5 2.32 -5 3 C-3.35 3.33 -1.7 3.66 0 4 C0 2.68 0 1.36 0 0 Z " fill="#1E4460" transform="translate(359,119)"/>
<path d="M0 0 C1.6875 1.484375 1.6875 1.484375 3 3 C5.10332891 3.71447643 5.10332891 3.71447643 7 4 C7.495 6.97 7.495 6.97 8 10 C7.52949219 9.57847656 7.05898438 9.15695313 6.57421875 8.72265625 C5.95160156 8.17480469 5.32898438 7.62695312 4.6875 7.0625 C4.07261719 6.51722656 3.45773437 5.97195312 2.82421875 5.41015625 C-1.01293797 2.44396016 -5.35669264 2.53921377 -10 3 C-16.76135421 5.20778913 -21.15165531 10.57234192 -24.44921875 16.6875 C-26.41096754 20.92911901 -28.07843308 25.19660779 -29.5625 29.625 C-31 33 -31 33 -32.8203125 33.78125 C-39.72539078 34.47423277 -45.84361232 30.05928392 -51 26 C-50.67 25.34 -50.34 24.68 -50 24 C-45 27 -45 27 -42.625 28.625 C-39.42762051 30.29981783 -36.56910247 30.65008799 -33 31 C-32.34 27.7 -31.68 24.4 -31 21 C-30.34 21 -29.68 21 -29 21 C-29 19.35 -29 17.7 -29 16 C-28.01 16 -27.02 16 -26 16 C-25.731875 14.865625 -25.46375 13.73125 -25.1875 12.5625 C-24.795625 11.386875 -24.40375 10.21125 -24 9 C-23.01 8.67 -22.02 8.34 -21 8 C-20.32685306 6.66992653 -19.66063128 5.33633399 -19 4 C-13.62578082 -0.3640276 -6.67480403 -1.19693578 0 0 Z " fill="#D39350" transform="translate(272,232)"/>
<path d="M0 0 C24.42 0 48.84 0 74 0 C75.09521965 4.38087859 75.12998234 5.20307495 73 9 C71.09648416 10.84797559 69.11935843 12.38744467 67 14 C67.66 11.69 68.32 9.38 69 7 C69.66 7 70.32 7 71 7 C71 6.01 71 5.02 71 4 C69.78268188 4.01571045 69.78268188 4.01571045 68.54077148 4.03173828 C64.83971289 4.0734865 61.13870399 4.09938613 57.4375 4.125 C55.52227539 4.15013672 55.52227539 4.15013672 53.56835938 4.17578125 C52.32763672 4.18222656 51.08691406 4.18867188 49.80859375 4.1953125 C48.67220459 4.20578613 47.53581543 4.21625977 46.36499023 4.22705078 C43 4 43 4 39.609375 3.01367188 C35.45065772 1.84572043 31.73370988 1.65192913 27.44140625 1.5859375 C26.65225327 1.56657135 25.86310028 1.5472052 25.05003357 1.5272522 C22.55429553 1.46795176 20.05851011 1.4212715 17.5625 1.375 C15.86000704 1.33677449 14.15753248 1.29772016 12.45507812 1.2578125 C8.30353659 1.16229172 4.15190467 1.07808031 0 1 C0 0.67 0 0.34 0 0 Z " fill="#3A4D5D" transform="translate(179,417)"/>
<path d="M0 0 C0.33 0 0.66 0 1 0 C1.02469081 4.3782512 1.04285557 8.75646567 1.05493164 13.13476562 C1.05996514 14.62468166 1.06679242 16.11459274 1.07543945 17.60449219 C1.08754805 19.74415304 1.09323807 21.88374868 1.09765625 24.0234375 C1.10289307 25.31169434 1.10812988 26.59995117 1.11352539 27.92724609 C1 31 1 31 0 33 C-3.56206722 33.14567407 -7.12336551 33.23419196 -10.6875 33.3125 C-11.69490234 33.35439453 -12.70230469 33.39628906 -13.74023438 33.43945312 C-18.22754349 33.51350113 -21.13590704 33.50653725 -25.05859375 31.20703125 C-27.91651226 26.48600289 -28.57839196 21.78390164 -29.375 16.375 C-29.55160156 15.32570313 -29.72820312 14.27640625 -29.91015625 13.1953125 C-31.15094021 5.45282062 -31.15094021 5.45282062 -30 2 C-30 2.66 -30 3.32 -30 4 C-29.34 4 -28.68 4 -28 4 C-27.4935186 6.70726366 -26.994649 9.41557124 -26.5 12.125 C-26.35691406 12.88554687 -26.21382812 13.64609375 -26.06640625 14.4296875 C-25.29687544 18.68042914 -24.83355624 22.65859197 -25 27 C-24.01 27.33 -23.02 27.66 -22 28 C-21.67 28.66 -21.34 29.32 -21 30 C-14.73 30 -8.46 30 -2 30 C-1.93941406 28.00195312 -1.87882812 26.00390625 -1.81640625 23.9453125 C-1.75383389 22.01252169 -1.69122896 20.07973178 -1.62768555 18.14697266 C-1.56301749 16.14105193 -1.50316894 14.13497772 -1.44335938 12.12890625 C-1.40146484 10.87207031 -1.35957031 9.61523438 -1.31640625 8.3203125 C-1.27974854 7.15773926 -1.24309082 5.99516602 -1.20532227 4.79736328 C-1 2 -1 2 0 0 Z " fill="#BC6649" transform="translate(189,324)"/>
<path d="M0 0 C3.97716039 -0.31817283 6.49658255 -0.24164038 10.125 1.5 C16.25305073 6.82873976 19.66680022 14.00080133 21 22 C20.5703125 24.296875 20.5703125 24.296875 20 26 C13.33330821 26.72464041 8.579169 24.61227552 3 21 C-0.42158662 17.96035793 -2.75294344 14.42138234 -4 10 C-4.125 7.1875 -4.125 7.1875 -4 5 C-3.73445312 5.56847656 -3.46890625 6.13695312 -3.1953125 6.72265625 C0.55854616 13.87461572 5.61823376 19.58709134 13 23 C15.80740127 23.85166887 15.80740127 23.85166887 18 24 C17.71125 23.319375 17.4225 22.63875 17.125 21.9375 C16 19 16 19 15.0625 15.625 C13.35309574 8.63130998 13.35309574 8.63130998 8.6875 3.625 C5.8016904 2.95388149 2.93451511 2.40946722 0 2 C0 1.34 0 0.68 0 0 Z " fill="#C26A4F" transform="translate(161,241)"/>
<path d="M0 0 C3.65350069 2.71924837 4.87281751 4.15597074 5.55859375 8.70703125 C5.54666607 10.07606404 5.50529464 11.44509482 5.4375 12.8125 C5.42009766 13.52083984 5.40269531 14.22917969 5.38476562 14.95898438 C5.2073581 19.90365044 4.56007148 24.31978555 3 29 C1.875 27.5 1.875 27.5 1 25 C1.46136057 23.08864906 1.93172262 21.17831248 2.4765625 19.2890625 C3.55430102 14.57596719 3.87386602 9.33575405 2.1640625 4.765625 C1.05366013 2.69223791 1.05366013 2.69223791 -1.875 2 C-5.03655789 1.687021 -5.03655789 1.687021 -7.171875 3.6328125 C-10.4501887 7.87780845 -9.48193724 12.87081082 -9 18 C-8.08885464 21.32186171 -8.08885464 21.32186171 -7 24 C-6.4375 26.5 -6.4375 26.5 -7 29 C-9.10626777 31.31524473 -11.38530206 33.27855859 -14 35 C-14.66 35 -15.32 35 -16 35 C-16 33.68 -16 32.36 -16 31 C-14.35 30.34 -12.7 29.68 -11 29 C-11.144375 27.783125 -11.28875 26.56625 -11.4375 25.3125 C-11.62522819 23.54169084 -11.8126981 21.7708543 -12 20 C-12.13019531 18.9171875 -12.26039063 17.834375 -12.39453125 16.71875 C-13.54205117 5.7227349 -13.54205117 5.7227349 -10 1 C-6.84203893 -0.57898053 -3.39329364 -0.81928171 0 0 Z " fill="#CF9257" transform="translate(218,227)"/>
<path d="M0 0 C2.20770805 -0.08165496 4.41630425 -0.13948488 6.625 -0.1875 C7.85476562 -0.22230469 9.08453125 -0.25710937 10.3515625 -0.29296875 C17.45247656 0.27723313 21.50139099 3.85873256 26 9 C26 9.99 26 10.98 26 12 C26.66 12 27.32 12 28 12 C28.26554687 12.75925781 28.53109375 13.51851562 28.8046875 14.30078125 C29.15789062 15.29464844 29.51109375 16.28851563 29.875 17.3125 C30.22304687 18.29863281 30.57109375 19.28476563 30.9296875 20.30078125 C31.95305924 23.15594377 31.95305924 23.15594377 34 26 C34.38499891 27.65549531 34.72793135 29.3222433 35 31 C37.64 31 40.28 31 43 31 C39.99382731 34.00617269 37.17618402 33.59585316 33 34 C32.65388672 33.12601562 32.65388672 33.12601562 32.30078125 32.234375 C31.60600044 30.48781139 30.9063414 28.7431843 30.203125 27 C29.38662638 24.96405539 28.58500585 22.92209311 27.796875 20.875 C24.93418523 13.62768412 22.74414142 8.20243613 15.8125 4.125 C9.84623878 2.3644639 3.99890568 2.28996712 -2 4 C-1.34 2.68 -0.68 1.36 0 0 Z " fill="#C76947" transform="translate(157,232)"/>
<path d="M0 0 C1.29035156 0.00902344 2.58070313 0.01804688 3.91015625 0.02734375 C7.06530249 0.0507152 10.22004926 0.08347909 13.375 0.125 C13.375 0.785 13.375 1.445 13.375 2.125 C12.41799194 2.14687378 12.41799194 2.14687378 11.44165039 2.16918945 C-11.05854206 2.40310033 -11.05854206 2.40310033 -32.625 8.125 C-34.95663378 8.79758667 -37.2902039 9.46347444 -39.625 10.125 C-42.63384266 11.0991548 -45.63087454 12.10658998 -48.625 13.125 C-48.625 12.465 -48.625 11.805 -48.625 11.125 C-40.84347611 7.32000636 -33.01337631 4.31036766 -24.625 2.125 C-23.57844238 1.85139648 -23.57844238 1.85139648 -22.51074219 1.57226562 C-15.01272 -0.17346887 -7.66592239 -0.10263336 0 0 Z " fill="#CF9251" transform="translate(274.625,168.875)"/>
<path d="M0 0 C0.99 0.33 1.98 0.66 3 1 C2.01 2.175625 2.01 2.175625 1 3.375 C-1.85402706 7.73276175 -1.84429951 11.96382749 -1 17 C1.27284682 23.83865414 4.84918004 29.16209168 11 33 C15.50738171 35.21874991 20.01036608 36.37629576 25 37 C24.67 37.66 24.34 38.32 24 39 C18.24840654 39.36712299 13.1719991 38.70194105 8 36 C5.75 33.125 5.75 33.125 4 30 C3.113125 29.154375 2.22625 28.30875 1.3125 27.4375 C-1.15170404 24.84009574 -1.699558 23.50515671 -2 20 C-2.99 20 -3.98 20 -5 20 C-5.05402274 17.89611431 -5.09280256 15.79183286 -5.125 13.6875 C-5.14820313 12.51574219 -5.17140625 11.34398437 -5.1953125 10.13671875 C-5 7 -5 7 -3 4 C-2.34 4 -1.68 4 -1 4 C-0.67 2.68 -0.34 1.36 0 0 Z " fill="#CD6946" transform="translate(152,236)"/>
<path d="M0 0 C1.32 0 2.64 0 4 0 C4.66 0.99 5.32 1.98 6 3 C6.61875 3.598125 7.2375 4.19625 7.875 4.8125 C10.32058229 7.33001118 12.07050894 10.07464259 14 13 C14.556875 13.556875 15.11375 14.11375 15.6875 14.6875 C17 16 17 16 18 19 C18.45375 19.4125 18.9075 19.825 19.375 20.25 C23.80141012 25.01690321 25.89507047 33.11443794 26.125 39.4375 C26.08375 40.283125 26.0425 41.12875 26 42 C24.02665869 39.03998804 22.69007962 36.18542151 21.25 32.9375 C16.8783685 23.42525123 11.86222073 15.50729436 5.05078125 7.54296875 C3.10322076 5.12799374 1.52509483 2.69675499 0 0 Z " fill="#CA6C51" transform="translate(132,284)"/>
<path d="M0 0 C0.66 0 1.32 0 2 0 C2.02464513 6.1055471 2.04283371 12.21106551 2.05493164 18.31665039 C2.05997288 20.39543156 2.06680574 22.47420916 2.07543945 24.55297852 C2.08751422 27.53402586 2.09323024 30.51502649 2.09765625 33.49609375 C2.10281754 34.43150497 2.10797882 35.3669162 2.11329651 36.33067322 C2.11340981 37.62189842 2.11340981 37.62189842 2.11352539 38.93920898 C2.115746 39.70087875 2.11796661 40.46254852 2.12025452 41.24729919 C2 43 2 43 1 44 C-0.56172745 44.08685603 -2.12729344 44.10702219 -3.69140625 44.09765625 C-4.63564453 44.09443359 -5.57988281 44.09121094 -6.55273438 44.08789062 C-7.54595703 44.07951172 -8.53917969 44.07113281 -9.5625 44.0625 C-10.55958984 44.05798828 -11.55667969 44.05347656 -12.58398438 44.04882812 C-15.05604849 44.03700007 -17.52799518 44.02051849 -20 44 C-20 43.34 -20 42.68 -20 42 C-13.73 41.67 -7.46 41.34 -1 41 C-0.67 27.47 -0.34 13.94 0 0 Z " fill="#CD8C48" transform="translate(232,313)"/>
<path d="M0 0 C0 0.99 0 1.98 0 3 C-0.66 3.66 -1.32 4.32 -2 5 C-3.87904276 9.64234094 -4.48895613 14.05990924 -5 19 C1.15177851 18.78414812 4.13699477 17.65886817 8.65234375 13.47265625 C10.102807 12.02264596 10.102807 12.02264596 11 10 C11.66 10 12.32 10 13 10 C12.26866283 14.34114244 10.28297011 15.92750369 6.9609375 18.60546875 C1.800913 22.27504793 -2.71230892 23.50301529 -9 23 C-9.33 22.67 -9.66 22.34 -10 22 C-9.71329571 14.11563194 -6.92182003 7.31666058 -1.6875 1.375 C-1.130625 0.92125 -0.57375 0.4675 0 0 Z " fill="#E2943C" transform="translate(259,244)"/>
<path d="M0 0 C4.95 0.99 4.95 0.99 10 2 C10 2.66 10 3.32 10 4 C11.58086048 4.36504603 13.16483907 4.71660506 14.75 5.0625 C16.07257813 5.35833984 16.07257813 5.35833984 17.421875 5.66015625 C19.98679028 5.99825872 21.57091639 5.81158635 24 5 C24 5.66 24 6.32 24 7 C26.44480079 6.81171228 26.44480079 6.81171228 29 6 C30.36020151 4.03241727 30.36020151 4.03241727 31 2 C31.66 2 32.32 2 33 2 C32.34 5.63 31.68 9.26 31 13 C27.4548943 14.1817019 26.85982494 13.7911988 23.55078125 12.34765625 C22.70322266 11.98349609 21.85566406 11.61933594 20.98242188 11.24414062 C20.10134766 10.85419922 19.22027344 10.46425781 18.3125 10.0625 C17.41982422 9.67642578 16.52714844 9.29035156 15.60742188 8.89257812 C13.40107732 7.93688877 11.19899853 6.97244531 9 6 C9 5.34 9 4.68 9 4 C6.03 3.01 3.06 2.02 0 1 C0 0.67 0 0.34 0 0 Z " fill="#1D3042" transform="translate(66,116)"/>
<path d="M0 0 C12.70761916 3.58756983 24.9010985 7.70281255 37 13 C37 13.66 37 14.32 37 15 C38.98 15.66 40.96 16.32 43 17 C43 17.66 43 18.32 43 19 C40.69 18.34 38.38 17.68 36 17 C36 16.34 36 15.68 36 15 C35.19691406 14.90589844 34.39382813 14.81179687 33.56640625 14.71484375 C29.11709971 13.82303313 25.13611346 12.25365604 20.9375 10.5625 C19.75317383 10.09360352 19.75317383 10.09360352 18.54492188 9.61523438 C15.43403234 8.38183056 12.32999824 7.13788878 9.2421875 5.84765625 C6.90523205 4.96417309 4.6314775 4.38568186 2.1875 3.875 C1.39730469 3.70742187 0.60710937 3.53984375 -0.20703125 3.3671875 C-0.79871094 3.24601562 -1.39039063 3.12484375 -2 3 C-1.34 2.67 -0.68 2.34 0 2 C0 1.34 0 0.68 0 0 Z " fill="#21384C" transform="translate(265,100)"/>
<path d="M0 0 C0.99 0.33 1.98 0.66 3 1 C2.29875 1.81082031 1.5975 2.62164062 0.875 3.45703125 C-6.30381043 11.81284155 -13.14855415 20.28664777 -18.9375 29.6875 C-19.618125 30.780625 -20.29875 31.87375 -21 33 C-21.33 33 -21.66 33 -22 33 C-21.67 30.69 -21.34 28.38 -21 26 C-20.34 26 -19.68 26 -19 26 C-18.89429688 25.27425781 -18.78859375 24.54851562 -18.6796875 23.80078125 C-17.94149264 20.75890932 -16.85538981 18.78308471 -15.125 16.1875 C-14.61195313 15.39730469 -14.09890625 14.60710937 -13.5703125 13.79296875 C-13.05210937 13.20128906 -12.53390625 12.60960937 -12 12 C-11.01 12 -10.02 12 -9 12 C-8.773125 11.278125 -8.54625 10.55625 -8.3125 9.8125 C-6.73664872 6.43567583 -4.79123384 4.44232961 -2 2 C-1.34 2 -0.68 2 0 2 C0 1.34 0 0.68 0 0 Z " fill="#D49C5F" transform="translate(301,278)"/>
<path d="M0 0 C0 0.33 0 0.66 0 1 C-15.18 1 -30.36 1 -46 1 C-46 0.67 -46 0.34 -46 0 C-29.81830624 -3.05109377 -16.11978372 -3.74567589 0 0 Z " fill="#1D374E" transform="translate(297,160)"/>
<path d="M0 0 C0.33 0.66 0.66 1.32 1 2 C0.0925 2.598125 -0.815 3.19625 -1.75 3.8125 C-4.8893965 5.83620328 -4.8893965 5.83620328 -7.125 7.8125 C-7.74375 8.204375 -8.3625 8.59625 -9 9 C-9.61875 8.835 -10.2375 8.67 -10.875 8.5 C-13.17336788 7.75704367 -13.17336788 7.75704367 -16 9.0625 C-19.42719038 11.27589379 -20.97568331 13.49637496 -23 17 C-24.32 16.34 -25.64 15.68 -27 15 C-27 13.68 -27 12.36 -27 11 C-23.06322404 9.35243095 -19.12545764 7.70724242 -15.1875 6.0625 C-14.06794922 5.59392578 -12.94839844 5.12535156 -11.79492188 4.64257812 C-10.18520508 3.9706543 -10.18520508 3.9706543 -8.54296875 3.28515625 C-7.55321045 2.87144775 -6.56345215 2.45773926 -5.54370117 2.03149414 C-3.71988205 1.29191877 -1.86707234 0.62235745 0 0 Z " fill="#1E2F44" transform="translate(76,93)"/>
<path d="M0 0 C2.06037303 3.09055955 2.24799242 3.70926162 2.22705078 7.19604492 C2.22689972 8.03668991 2.22674866 8.8773349 2.22659302 9.74345398 C2.21627045 10.64666885 2.20594788 11.54988373 2.1953125 12.48046875 C2.1924826 13.40845779 2.18965271 14.33644684 2.18673706 15.29255676 C2.17553836 18.25766879 2.15043435 21.22247921 2.125 24.1875 C2.1149698 26.19726126 2.10584402 28.20702726 2.09765625 30.21679688 C2.07560004 35.14464753 2.04107229 40.07227262 2 45 C0.68 45 -0.64 45 -2 45 C-2 44.34 -2 43.68 -2 43 C-2.66 42.67 -3.32 42.34 -4 42 C-2.515 41.505 -2.515 41.505 -1 41 C-0.67 27.47 -0.34 13.94 0 0 Z " fill="#1A3144" transform="translate(321,125)"/>
<path d="M0 0 C0.66 0 1.32 0 2 0 C2.33 9.9 2.66 19.8 3 30 C3.66 30.33 4.32 30.66 5 31 C4.34 32.98 3.68 34.96 3 37 C2.01 37 1.02 37 0 37 C0 36.34 0 35.68 0 35 C-1.98 35.495 -1.98 35.495 -4 36 C-4 35.34 -4 34.68 -4 34 C-2.02 33.505 -2.02 33.505 0 33 C0 22.11 0 11.22 0 0 Z " fill="#19344C" transform="translate(354,123)"/>
<path d="M0 0 C6.7026233 0.54250998 11.41302252 3.05045558 17.21484375 6.29296875 C21.26759134 8.49601255 21.26759134 8.49601255 25.78515625 8.83984375 C28.63820705 7.75799909 31.31093207 6.43833866 34 5 C33.34 6.32 32.68 7.64 32 9 C31.01 9 30.02 9 29 9 C29 9.66 29 10.32 29 11 C25.67438135 12.76062164 24.40826005 13.10784228 20.6875 12.125 C19.800625 11.75375 18.91375 11.3825 18 11 C18 10.34 18 9.68 18 9 C17.01 8.7525 16.02 8.505 15 8.25 C9.32888247 6.62474071 4.04468609 4.38174326 0 0 Z " fill="#CD8E4B" transform="translate(191,176)"/>
<path d="M0 0 C4.77163242 0.61837403 8.50466929 2.57705895 12.6875 4.8125 C13.36361328 5.15603516 14.03972656 5.49957031 14.73632812 5.85351562 C18.42904328 7.81194068 20.64592195 9.01570431 22 13 C22.1683504 15.71894955 22.23294575 18.33103955 22.1953125 21.046875 C22.1924826 21.81807678 22.18965271 22.58927856 22.18673706 23.3838501 C22.17557013 25.83939332 22.15047229 28.2945676 22.125 30.75 C22.11496568 32.41796347 22.10584061 34.08593268 22.09765625 35.75390625 C22.07564225 39.83607897 22.04113667 43.917977 22 48 C21.67 48 21.34 48 21 48 C21.00112793 46.99622314 21.00225586 45.99244629 21.00341797 44.95825195 C20.99973678 41.22102849 20.95685688 37.48509021 20.90234375 33.74829102 C20.88421602 32.13346655 20.87660943 30.51848735 20.87988281 28.90356445 C20.88274963 26.57642681 20.84734522 24.25247616 20.8046875 21.92578125 C20.81378143 21.20787918 20.82287537 20.48997711 20.83224487 19.75032043 C20.75060641 16.91190282 20.5532577 14.6615077 18.69302368 12.43730164 C15.91069399 10.06638633 13.09227618 8.32333185 9.625 7.1875 C8.42875 6.795625 7.2325 6.40375 6 6 C6 5.01 6 4.02 6 3 C4.02 2.34 2.04 1.68 0 1 C0 0.67 0 0.34 0 0 Z " fill="#344655" transform="translate(302,114)"/>
<path d="M0 0 C1.32 0.33 2.64 0.66 4 1 C7.67864237 16.76561015 8.35059046 32.87283876 8 49 C4.7057833 45.7057833 5.21035285 41.50837326 5 37 C5.00808275 34.58325705 5.02974197 32.16653444 5.0625 29.75 C5.12255667 22.34050893 4.25004783 15.29042491 3 8 C2.85433594 6.91847656 2.70867187 5.83695312 2.55859375 4.72265625 C2.23280933 1.86576581 2.23280933 1.86576581 0 0 Z " fill="#C37157" transform="translate(181,274)"/>
<path d="M0 0 C0.69730225 0.07839111 1.39460449 0.15678223 2.11303711 0.23754883 C6.61237946 0.79936064 10.7489544 1.78650736 15.0625 3.125 C15.0625 3.455 15.0625 3.785 15.0625 4.125 C8.83753778 4.34732008 2.97588673 3.76169028 -3.19140625 2.91113281 C-12.39456182 1.71164918 -21.66983773 1.45753281 -30.9375 1.125 C-30.9375 0.795 -30.9375 0.465 -30.9375 0.125 C-20.62350855 -1.52523863 -10.34524031 -1.18241016 0 0 Z " fill="#1B283B" transform="translate(171.9375,158.875)"/>
<path d="M0 0 C-6.625 3.875 -6.625 3.875 -10 5 C-9.67 5.66 -9.34 6.32 -9 7 C-9.825 6.9175 -10.65 6.835 -11.5 6.75 C-15.42547838 7.03039131 -17.58416991 8.14270092 -20.98046875 9.98046875 C-23.8761222 11.44229767 -26.86276571 12.21569143 -30 13 C-30.804375 13.20625 -31.60875 13.4125 -32.4375 13.625 C-32.953125 13.74875 -33.46875 13.8725 -34 14 C-34 13.34 -34 12.68 -34 12 C-31.7101766 10.9955866 -29.4183401 9.99632388 -27.125 9 C-26.47402344 8.71382812 -25.82304688 8.42765625 -25.15234375 8.1328125 C-20.2265625 6 -20.2265625 6 -18 6 C-18 5.34 -18 4.68 -18 4 C-4.57142857 -2.28571429 -4.57142857 -2.28571429 0 0 Z " fill="#27384C" transform="translate(112,80)"/>
<path d="M0 0 C0 0.66 0 1.32 0 2 C-0.80824219 2.19335938 -1.61648437 2.38671875 -2.44921875 2.5859375 C-3.51785156 2.84632813 -4.58648437 3.10671875 -5.6875 3.375 C-6.74324219 3.63023437 -7.79898438 3.88546875 -8.88671875 4.1484375 C-13.08078943 5.23582403 -13.08078943 5.23582403 -17 7 C-18.14399406 9.48084126 -18.14399406 9.48084126 -18.625 12.375 C-19.46964996 16.44467707 -20.50414733 18.72126593 -23 22 C-23.56327743 24.11818257 -23.56327743 24.11818257 -23.6875 26.25 C-23.790625 27.4875 -23.89375 28.725 -24 30 C-24.66 30 -25.32 30 -26 30 C-25.57079652 21.55899828 -23.54738635 12.53277145 -18.2421875 5.75390625 C-15.42956595 3.55378939 -12.86305051 2.73206909 -9.4375 1.75 C-8.30183594 1.41484375 -7.16617188 1.0796875 -5.99609375 0.734375 C-3 0 -3 0 0 0 Z " fill="#C06B52" transform="translate(131,172)"/>
<path d="M0 0 C0.66 0.33 1.32 0.66 2 1 C1.67 1.33 1.34 1.66 1 2 C1.14369533 9.35056856 2.06870902 16.61030492 3.125 23.875 C4.27369324 32.01600034 3.80248969 39.84496959 3 48 C2.67 48 2.34 48 2 48 C1.9498877 47.29093506 1.89977539 46.58187012 1.84814453 45.85131836 C0.58717521 27.80327824 0.58717521 27.80327824 -1.6328125 9.85546875 C-1.97847537 7.16738836 -2.21695706 4.70253039 -2 2 C-1.34 1.34 -0.68 0.68 0 0 Z " fill="#C68A56" transform="translate(194,272)"/>
<path d="M0 0 C1.74456007 5.23368021 -1.68368041 10.24146593 -3.98193359 15.02441406 C-7.37197799 21.6028887 -11.46395408 29.02634604 -17 34 C-17.25 31.25 -17.25 31.25 -17 28 C-15.25 26.0625 -15.25 26.0625 -13 24 C-11.89144709 22.28565796 -10.91895815 20.52833628 -9.9453125 18.734375 C-9.12434472 17.22813659 -8.22471754 15.7652909 -7.3125 14.3125 C-5.9166851 12.09376638 -5.9166851 12.09376638 -5.4375 9.75 C-5.293125 9.1725 -5.14875 8.595 -5 8 C-4.34 7.67 -3.68 7.34 -3 7 C-1.94647157 4.69034152 -0.94280904 2.3570226 0 0 Z " fill="#D39550" transform="translate(321,244)"/>
<path d="M0 0 C0 3.63 0 7.26 0 11 C0.66 11.33 1.32 11.66 2 12 C4 14 4 14 4.3125 16.375 C3.94914998 19.42714016 3.01544839 20.73262056 1 23 C0.01 22.67 -0.98 22.34 -2 22 C-0.515 18.535 -0.515 18.535 1 15 C0.34 15 -0.32 15 -1 15 C-4.66641647 10.62850344 -4.31749488 6.39741292 -4 1 C-2 0 -2 0 0 0 Z " fill="#26374A" transform="translate(350,159)"/>
<path d="M0 0 C0.33 0.66 0.66 1.32 1 2 C4.96 2 8.92 2 13 2 C13 2.33 13 2.66 13 3 C11.98574951 3.02505615 10.97149902 3.0501123 9.92651367 3.07592773 C6.16368973 3.17009645 2.40104631 3.27029405 -1.36157227 3.37231445 C-2.99011004 3.41562749 -4.61869216 3.45730518 -6.24731445 3.49731445 C-8.58818935 3.55510503 -10.92884176 3.61877398 -13.26953125 3.68359375 C-14.36186821 3.70866249 -14.36186821 3.70866249 -15.47627258 3.73423767 C-18.56166939 3.82467238 -21.05171978 4.01723993 -24 5 C-24.33 6.65 -24.66 8.3 -25 10 C-25.6875 8.3125 -25.6875 8.3125 -26 6 C-24.85229492 3.3996582 -24.85229492 3.3996582 -23 1 C-20.5480957 0.34057617 -20.5480957 0.34057617 -17.67578125 0.29296875 C-16.64775391 0.26396484 -15.61972656 0.23496094 -14.56054688 0.20507812 C-13.48869141 0.19927734 -12.41683594 0.19347656 -11.3125 0.1875 C-9.68731445 0.14979492 -9.68731445 0.14979492 -8.02929688 0.11132812 C-5.35250017 0.05236785 -2.67734185 0.01615337 0 0 Z " fill="#1B2537" transform="translate(189,365)"/>
<path d="M0 0 C7.94300145 2.18067409 15.502923 5.08106048 23.125 8.1875 C24.27226562 8.65091797 25.41953125 9.11433594 26.6015625 9.59179688 C29.40267125 10.72391166 32.20207482 11.86004534 35 13 C31.17265547 14.14417457 29.68248877 13.54150693 26 12 C24.906875 11.87625 23.81375 11.7525 22.6875 11.625 C18.22452397 10.86856338 14.9304371 9.14755842 11 7 C10.33871094 6.67128906 9.67742187 6.34257813 8.99609375 6.00390625 C5.92487543 4.45928177 2.97743854 2.717753 0 1 C0 0.67 0 0.34 0 0 Z " fill="#31465A" transform="translate(287,65)"/>
<path d="M0 0 C-1.25 1.5 -1.25 1.5 -3 3 C-4.32 3 -5.64 3 -7 3 C-7 4.32 -7 5.64 -7 7 C-8.65 7 -10.3 7 -12 7 C-11.67 7.66 -11.34 8.32 -11 9 C-10.82139064 10.39201895 -10.68044293 11.78903387 -10.5625 13.1875 C-10.14619505 17.33712035 -9.26634906 21.03210629 -8 25 C-8.99 25 -9.98 25 -11 25 C-11.33868777 22.79248152 -11.67071689 20.58394089 -12 18.375 C-12.185625 17.14523437 -12.37125 15.91546875 -12.5625 14.6484375 C-13.60980036 5.91470054 -13.60980036 5.91470054 -11 2 C-8.90625 1.015625 -8.90625 1.015625 -6.5 0.25 C-5.7059375 -0.01296875 -4.911875 -0.2759375 -4.09375 -0.546875 C-2 -1 -2 -1 0 0 Z " fill="#E3953F" transform="translate(207,269)"/>
<path d="M0 0 C0.99 0.33 1.98 0.66 3 1 C3.5546875 2.78515625 3.5546875 2.78515625 3.875 5.0625 C4.70799524 9.50278819 6.32718157 12.50288109 8.82421875 16.22265625 C11.41475674 20.13858577 12.26661307 23.33427131 12 28 C8.290035 23.86416705 6.34121277 19.64975141 4.3125 14.5625 C3.85133789 13.45551758 3.85133789 13.45551758 3.38085938 12.32617188 C1.7150839 8.2255211 0.52649013 4.429537 0 0 Z " fill="#C66C5A" transform="translate(106,237)"/>
<path d="M0 0 C0.99 0.33 1.98 0.66 3 1 C2.125 7.875 2.125 7.875 1 9 C-1.61670921 9.12713954 -4.19530713 9.18521024 -6.8125 9.1875 C-7.53759766 9.19974609 -8.26269531 9.21199219 -9.00976562 9.22460938 C-12.82993278 9.23509474 -15.76435611 9.14860342 -19 7 C-17.1746875 6.7834375 -17.1746875 6.7834375 -15.3125 6.5625 C-12.92006919 6.2718702 -10.66390884 5.92183926 -8.3125 5.375 C-5.62665672 4.93945785 -3.61793448 5.32681685 -1 6 C-0.67 4.02 -0.34 2.04 0 0 Z " fill="#243849" transform="translate(373,201)"/>
<path d="M0 0 C0.33 0.66 0.66 1.32 1 2 C1.99 2.33 2.98 2.66 4 3 C3.01 3 2.02 3 1 3 C1 13.89 1 24.78 1 36 C-0.98 36.495 -0.98 36.495 -3 37 C-3 37.66 -3 38.32 -3 39 C-4.485 39.495 -4.485 39.495 -6 40 C-4.63016497 36.83884224 -4.0109362 36.0072908 -1 34 C-0.58166222 30.89360445 -0.58166222 30.89360445 -0.70703125 27.2421875 C-0.71127609 26.57913605 -0.71552094 25.91608459 -0.71989441 25.23294067 C-0.73670029 23.11321559 -0.77435299 20.99443812 -0.8125 18.875 C-0.82754451 17.43881581 -0.84123332 16.00261672 -0.85351562 14.56640625 C-0.8866091 11.04396236 -0.9384032 7.52207364 -1 4 C-2.98 4.33 -4.96 4.66 -7 5 C-3.375 2 -3.375 2 0 2 C0 1.34 0 0.68 0 0 Z " fill="#3D4E5F" transform="translate(353,120)"/>
<path d="M0 0 C0.66 0 1.32 0 2 0 C2.50567729 2.56149628 3.00470132 5.12399465 3.5 7.6875 C3.64308594 8.40873047 3.78617188 9.12996094 3.93359375 9.87304688 C4.65571887 13.63841359 5.1824976 17.14473813 5 21 C0.55397698 16.55397698 -0.11647986 11.98701148 -1 6 C-0.34 6 0.32 6 1 6 C0.67 4.02 0.34 2.04 0 0 Z " fill="#E47637" transform="translate(186,237)"/>
<path d="M0 0 C0.99 0.495 0.99 0.495 2 1 C2.625 4.0625 2.625 4.0625 3 7 C6.79303725 5.99806563 9.71536341 5.18975773 13 3 C15.6875 2.875 15.6875 2.875 18 3 C16.02 3.99 16.02 3.99 14 5 C14 5.66 14 6.32 14 7 C12.39850114 7.67305018 10.79368971 8.33822227 9.1875 9 C8.29417969 9.37125 7.40085937 9.7425 6.48046875 10.125 C4 11 4 11 1 11 C0.67 7.37 0.34 3.74 0 0 Z " fill="#172D41" transform="translate(332,119)"/>
<path d="M0 0 C1.7325 0.4640625 1.7325 0.4640625 3.5 0.9375 C10.55670372 2.53460309 17.79597415 2.66410677 25 3 C17.57900861 6.71049569 11.43800581 6.05308612 3.3125 4.125 C2.549375 3.75375 1.78625 3.3825 1 3 C0.67 2.01 0.34 1.02 0 0 Z " fill="#243344" transform="translate(198,441)"/>
<path d="M0 0 C0.33 0 0.66 0 1 0 C0.91254425 2.39749384 0.80562925 4.79148221 0.6875 7.1875 C0.66494141 7.86103516 0.64238281 8.53457031 0.61914062 9.22851562 C0.384083 13.60913504 -0.31458812 16.51087815 -3 20 C-6.42094242 22.28062828 -7.68187222 22.21925007 -11.6875 22.125 C-13.17830078 22.09792969 -13.17830078 22.09792969 -14.69921875 22.0703125 C-15.45847656 22.04710937 -16.21773437 22.02390625 -17 22 C-17 21.67 -17 21.34 -17 21 C-16.32453125 20.87882812 -15.6490625 20.75765625 -14.953125 20.6328125 C-14.06109375 20.46523438 -13.1690625 20.29765625 -12.25 20.125 C-10.92742187 19.88136719 -10.92742187 19.88136719 -9.578125 19.6328125 C-6.01994173 18.86680846 -6.01994173 18.86680846 -3 17 C-2.39764975 14.21969368 -2.02983419 11.74819271 -1.8125 8.9375 C-1.08642857 1.08642857 -1.08642857 1.08642857 0 0 Z " fill="#C8935A" transform="translate(270,335)"/>
<path d="M0 0 C9.09191414 -0.58974578 16.45437743 0.91254926 25 4 C25 4.33 25 4.66 25 5 C16.61044093 4.34938113 8.31984045 3.25101251 0 2 C0 1.34 0 0.68 0 0 Z " fill="#C7694B" transform="translate(168,171)"/>
<path d="M0 0 C0.99 0.33 1.98 0.66 3 1 C2.360625 1.721875 1.72125 2.44375 1.0625 3.1875 C-2.29657973 8.08961989 -1.82977245 14.26333164 -2 20 C-2.99 20 -3.98 20 -5 20 C-5.05402274 17.89611431 -5.09280256 15.79183286 -5.125 13.6875 C-5.14820313 12.51574219 -5.17140625 11.34398437 -5.1953125 10.13671875 C-5 7 -5 7 -3 4 C-2.34 4 -1.68 4 -1 4 C-0.67 2.68 -0.34 1.36 0 0 Z " fill="#C8603E" transform="translate(152,236)"/>
<path d="M0 0 C-2.07155215 3.10732823 -2.82032234 3.60911002 -6.0625 5.0625 C-9.17634573 6.33266339 -9.17634573 6.33266339 -11 9 C-11.66 9 -12.32 9 -13 9 C-13 8.01 -13 7.02 -13 6 C-14.98 6.33 -16.96 6.66 -19 7 C-15.7141754 4.24832423 -12.36372513 2.78066201 -8.375 1.25 C-7.22773438 0.80140625 -6.08046875 0.3528125 -4.8984375 -0.109375 C-2 -1 -2 -1 0 0 Z " fill="#324151" transform="translate(156,61)"/>
<path d="M0 0 C0.99 0.33 1.98 0.66 3 1 C2.01 2.485 2.01 2.485 1 4 C0.34 4 -0.32 4 -1 4 C-1.15855469 4.556875 -1.31710937 5.11375 -1.48046875 5.6875 C-3.20476718 11.32719432 -5.42118633 16.27545102 -9 21 C-9.33 21 -9.66 21 -10 21 C-9.67 18.69 -9.34 16.38 -9 14 C-8.34 14 -7.68 14 -7 14 C-6.84724609 12.91138672 -6.84724609 12.91138672 -6.69140625 11.80078125 C-5.92660387 8.70268347 -4.76251495 6.78911705 -2.9375 4.1875 C-2.38964844 3.39730469 -1.84179688 2.60710937 -1.27734375 1.79296875 C-0.85582031 1.20128906 -0.43429687 0.60960937 0 0 Z " fill="#D89346" transform="translate(289,290)"/>
<path d="M0 0 C4.95 0.99 4.95 0.99 10 2 C10 2.66 10 3.32 10 4 C11.19625 4.268125 12.3925 4.53625 13.625 4.8125 C17.37855376 5.74087006 20.60088806 7.13048843 24 9 C24 9.33 24 9.66 24 10 C18.17728663 10.59720137 14.0790596 8.528243 9 6 C9 5.34 9 4.68 9 4 C6.03 3.01 3.06 2.02 0 1 C0 0.67 0 0.34 0 0 Z " fill="#19293C" transform="translate(66,116)"/>
<path d="M0 0 C0 3 0 3 -2.3125 5.9375 C-5.93110034 10.70747318 -6.83490205 16.23134431 -8 22 C-6.02 22 -4.04 22 -2 22 C-2 22.33 -2 22.66 -2 23 C-4.33294775 23.04241723 -6.66702567 23.04092937 -9 23 C-9.33 22.67 -9.66 22.34 -10 22 C-9.71329571 14.11563194 -6.92182003 7.31666058 -1.6875 1.375 C-1.130625 0.92125 -0.57375 0.4675 0 0 Z " fill="#D09459" transform="translate(259,244)"/>
<path d="M0 0 C6.6 1.98 13.2 3.96 20 6 C17 8 17 8 13.3125 7.390625 C11.87154221 7.02373907 10.43406538 6.64296453 9 6.25 C8.27554687 6.06695312 7.55109375 5.88390625 6.8046875 5.6953125 C3.43414307 4.81225473 0.92139196 3.94759464 -2 2 C-1.34 2 -0.68 2 0 2 C0 1.34 0 0.68 0 0 Z " fill="#263D50" transform="translate(265,100)"/>
<path d="M0 0 C2.64 0.33 5.28 0.66 8 1 C5.75421558 4.40739705 3.48862878 7.76478258 1 11 C-0.625 7.75 -0.625 7.75 -2 4 C-1.1875 1.5625 -1.1875 1.5625 0 0 Z " fill="#DA6639" transform="translate(159,242)"/>
<path d="M0 0 C2.375 1.5625 2.375 1.5625 4 4 C4.375 7.625 4.375 7.625 4 11 C3.34 11.66 2.68 12.32 2 13 C1.82984375 12.28972656 1.6596875 11.57945312 1.484375 10.84765625 C1.24203125 9.92855469 0.9996875 9.00945312 0.75 8.0625 C0.51796875 7.14597656 0.2859375 6.22945312 0.046875 5.28515625 C-0.76260905 2.84705628 -0.76260905 2.84705628 -2.9375 2.15625 C-5.45046434 1.96587391 -7.56440383 2.39110096 -10 3 C-8.05861972 -0.88276057 -3.8576575 -0.39363852 0 0 Z " fill="#CE964D" transform="translate(270,241)"/>
<path d="M0 0 C1.875 0.5625 1.875 0.5625 4 2 C5.25 5.625 5.25 5.625 6 9 C8.64 9 11.28 9 14 9 C10.99382731 12.00617269 8.17618402 11.59585316 4 12 C3.3291288 10.3767313 2.66342971 8.75132422 2 7.125 C1.62875 6.22007812 1.2575 5.31515625 0.875 4.3828125 C0 2 0 2 0 0 Z " fill="#CA8255" transform="translate(186,254)"/>
<path d="M0 0 C0.82514784 2.83384108 1.07936233 5.16935251 0.87890625 8.109375 C0.83056641 8.86347656 0.78222656 9.61757813 0.73242188 10.39453125 C0.64831055 11.56048828 0.64831055 11.56048828 0.5625 12.75 C0.51029297 13.54277344 0.45808594 14.33554687 0.40429688 15.15234375 C0.27510676 17.10193997 0.13830035 19.05102886 0 21 C-0.99 21 -1.98 21 -3 21 C-3.43230491 13.65081658 -1.81774185 7.09784913 0 0 Z " fill="#D0975C" transform="translate(246,275)"/>
<path d="M0 0 C2.4375 0.625 2.4375 0.625 5 2 C6.07143765 5.28574213 6.33973524 7.13933739 5.0625 10.375 C4.711875 10.91125 4.36125 11.4475 4 12 C2.68 12 1.36 12 0 12 C-0.33 12.66 -0.66 13.32 -1 14 C-1 13.01 -1 12.02 -1 11 C-0.34 10.67 0.32 10.34 1 10 C1.11320856 4.91696314 1.11320856 4.91696314 0 0 Z " fill="#293F51" transform="translate(264,394)"/>
<path d="M0 0 C1.0730896 3.21926881 0.97410068 4.98163395 0.66015625 8.32421875 C0.56669922 9.35224609 0.47324219 10.38027344 0.37695312 11.43945312 C0.22129883 13.04723633 0.22129883 13.04723633 0.0625 14.6875 C-0.03740234 15.77095703 -0.13730469 16.85441406 -0.24023438 17.97070312 C-0.48788698 20.64770991 -0.74136251 23.32403586 -1 26 C-1.66 25.67 -2.32 25.34 -3 25 C-3.02685095 22.52076199 -3.04676547 20.0418116 -3.0625 17.5625 C-3.07506836 16.50192383 -3.07506836 16.50192383 -3.08789062 15.41992188 C-3.09653588 13.61306441 -3.05220011 11.80612397 -3 10 C-2.67 9.67 -2.34 9.34 -2 9 C-1.60851239 7.48834346 -1.26027543 5.96530368 -0.9375 4.4375 C-0.76089844 3.61121094 -0.58429688 2.78492188 -0.40234375 1.93359375 C-0.26957031 1.29550781 -0.13679687 0.65742188 0 0 Z " fill="#CC9056" transform="translate(236,286)"/>
<path d="M0 0 C2.99306696 1.05637657 5.19138301 2.14353726 7.75 4.0625 C11.84437678 6.50337846 15.31228021 6.7916569 20 7 C19.67 7.99 19.34 8.98 19 10 C11.56726867 9.1000033 5.67544352 7.04483869 0 2 C0 1.34 0 0.68 0 0 Z " fill="#D29E5D" transform="translate(221,256)"/>
<path d="M0 0 C0.66 0.33 1.32 0.66 2 1 C1.72414063 1.81726563 1.44828125 2.63453125 1.1640625 3.4765625 C-0.14204004 7.42993328 -1.38848101 11.39944766 -2.625 15.375 C-2.85445313 16.11105469 -3.08390625 16.84710938 -3.3203125 17.60546875 C-3.88073239 19.40348257 -4.44043971 21.20171847 -5 23 C-5.33 23 -5.66 23 -6 23 C-5.50350895 14.95342094 -4.55386639 6.83079958 0 0 Z " fill="#CE975B" transform="translate(277,311)"/>
<path d="M0 0 C5.75 1.75 5.75 1.75 8 4 C5.50494038 6.49505962 4.32671112 6.35948376 0.875 6.625 C-0.03507813 6.69976562 -0.94515625 6.77453125 -1.8828125 6.8515625 C-2.93082031 6.92503906 -2.93082031 6.92503906 -4 7 C-3.505 6.566875 -3.01 6.13375 -2.5 5.6875 C-0.66781808 4.00259517 -0.66781808 4.00259517 -1 1 C-0.67 0.67 -0.34 0.34 0 0 Z " fill="#1B3045" transform="translate(149,89)"/>
<path d="M0 0 C0 0.33 0 0.66 0 1 C4.29 1.66 8.58 2.32 13 3 C13 3.33 13 3.66 13 4 C8.71 4 4.42 4 0 4 C0 4.66 0 5.32 0 6 C-0.99 5.67 -1.98 5.34 -3 5 C-3.33 4.34 -3.66 3.68 -4 3 C-5.32 3.33 -6.64 3.66 -8 4 C-7.67 3.01 -7.34 2.02 -7 1 C-4.53721199 -0.231394 -2.7204945 -0.07159196 0 0 Z " fill="#293B4F" transform="translate(171,392)"/>
<path d="M0 0 C7.8187104 0.46569122 15.36399015 1.22458462 23 3 C23 3.33 23 3.66 23 4 C15.36046629 4.21253726 8.35886071 4.20765821 1 2 C0.67 1.34 0.34 0.68 0 0 Z " fill="#2C4258" transform="translate(234,95)"/>
<path d="M0 0 C-5.25393437 3.12138505 -10.04044044 5.59775069 -16 7 C-16.804375 7.20625 -17.60875 7.4125 -18.4375 7.625 C-18.953125 7.74875 -19.46875 7.8725 -20 8 C-20 7.34 -20 6.68 -20 6 C-17.42249905 4.79816525 -14.83928838 3.61343114 -12.25 2.4375 C-11.52039063 2.09525391 -10.79078125 1.75300781 -10.0390625 1.40039062 C-9.33007812 1.08134766 -8.62109375 0.76230469 -7.890625 0.43359375 C-7.24125977 0.13509521 -6.59189453 -0.16340332 -5.92285156 -0.47094727 C-3.60506519 -1.10866223 -2.25095697 -0.75542816 0 0 Z " fill="#1A2C3F" transform="translate(98,86)"/>
<path d="M0 0 C1.12423486 1.68635229 2.24123306 3.37776673 3.33203125 5.0859375 C6.22328084 9.55631285 9.06323113 13.41059309 13 17 C7.6139888 15.15336759 2.77102483 12.10451943 0 7 C-0.1875 3.25 -0.1875 3.25 0 0 Z " fill="#BF7254" transform="translate(150,253)"/>
<path d="M0 0 C0.66 0 1.32 0 2 0 C1.67 5.61 1.34 11.22 1 17 C0.67 16.34 0.34 15.68 0 15 C-0.66 14.67 -1.32 14.34 -2 14 C-1.85970581 11.8537974 -1.71261836 9.70803782 -1.5625 7.5625 C-1.48128906 6.36753906 -1.40007812 5.17257813 -1.31640625 3.94140625 C-1 1 -1 1 0 0 Z " fill="#C85D42" transform="translate(105,202)"/>
<path d="M0 0 C0.99 0 1.98 0 3 0 C5.71391278 4.77357872 7.56561146 8.34388537 7 14 C4.18167487 12.59083743 3.97406539 10.92219617 3 8 C3 7.01 3 6.02 3 5 C2.34 5 1.68 5 1 5 C0.67 3.35 0.34 1.7 0 0 Z " fill="#23394B" transform="translate(365,183)"/>
<path d="M0 0 C0 0.66 0 1.32 0 2 C-5.25432063 4.45946923 -10.30860098 5.90301833 -16 7 C-13.94766315 4.7522025 -12.99332739 3.9977758 -10 3 C-9.34 2.34 -8.68 1.68 -8 1 C-5.22184257 0.28765194 -2.87628285 0 0 0 Z " fill="#1B2B3F" transform="translate(135,70)"/>
<path d="M0 0 C2.05401126 3.08101688 2.58133448 4.97558711 3.25 8.5625 C3.44078125 9.53316406 3.6315625 10.50382812 3.828125 11.50390625 C3.88484375 12.32761719 3.9415625 13.15132813 4 14 C3.34 14.66 2.68 15.32 2 16 C0.24836544 12.22777911 -0.22490027 9.333361 -0.125 5.1875 C-0.10695312 4.21167969 -0.08890625 3.23585938 -0.0703125 2.23046875 C-0.04710937 1.49441406 -0.02390625 0.75835937 0 0 Z " fill="#DE7930" transform="translate(199,317)"/>
<path d="M0 0 C0.66 0 1.32 0 2 0 C1.27273009 4.35417442 -0.76932142 6.02424195 -4.078125 8.73828125 C-6.64881951 10.42595265 -8.95482602 10.85145493 -12 11 C-11 9 -11 9 -8.25 7.75 C-5.29882951 6.1609082 -4.23098611 5.31821159 -2.25 2.8125 C-1.5075 1.884375 -0.765 0.95625 0 0 Z " fill="#D19146" transform="translate(270,254)"/>
<path d="M0 0 C1.62723299 0.45034123 3.25173664 0.91055354 4.875 1.375 C5.77992188 1.63023438 6.68484375 1.88546875 7.6171875 2.1484375 C10 3 10 3 12 5 C9.29889598 6.35055201 6.99210994 6 4 6 C3.01 6.495 3.01 6.495 2 7 C1.34 4.69 0.68 2.38 0 0 Z " fill="#2A4154" transform="translate(362,95)"/>
<path d="M0 0 C-1.32 0.33 -2.64 0.66 -4 1 C-4 1.66 -4 2.32 -4 3 C-5.98 3.99 -5.98 3.99 -8 5 C-7.67 5.66 -7.34 6.32 -7 7 C-7.99 7.33 -8.98 7.66 -10 8 C-10.66 7.01 -11.32 6.02 -12 5 C-12.99 5.33 -13.98 5.66 -15 6 C-15 5.34 -15 4.68 -15 4 C-13.06767179 3.13419713 -11.12892806 2.28270059 -9.1875 1.4375 C-8.10855469 0.96183594 -7.02960938 0.48617187 -5.91796875 -0.00390625 C-3 -1 -3 -1 0 0 Z " fill="#303F50" transform="translate(172,55)"/>
<path d="M0 0 C0.66 0 1.32 0 2 0 C2.875 3.1875 2.875 3.1875 3 7 C1.234912 9.32278681 -0.49169762 10.37698081 -3 12 C-3.66 12 -4.32 12 -5 12 C-5 10.68 -5 9.36 -5 8 C-3.35 7.34 -1.7 6.68 0 6 C0 4.02 0 2.04 0 0 Z " fill="#D39148" transform="translate(207,250)"/>
<path d="M0 0 C-0.99 0.33 -1.98 0.66 -3 1 C-3 1.66 -3 2.32 -3 3 C-6.9813783 4.3271261 -10.85045227 4.06915913 -15 4 C-10.27844707 -0.02206361 -6.0476984 -0.14064415 0 0 Z " fill="#1A2D40" transform="translate(173,88)"/>
<path d="M0 0 C2.31 0.33 4.62 0.66 7 1 C7.33 2.65 7.66 4.3 8 6 C8.66 6 9.32 6 10 6 C10 6.66 10 7.32 10 8 C8.68 7.67 7.36 7.34 6 7 C6 6.34 6 5.68 6 5 C4.68 4.34 3.36 3.68 2 3 C2 2.34 2 1.68 2 1 C1.34 0.67 0.68 0.34 0 0 Z " fill="#E69A42" transform="translate(308,176)"/>
<path d="M0 0 C0 0.66 0 1.32 0 2 C-1.56159059 2.48212214 -3.12431928 2.96055873 -4.6875 3.4375 C-5.55761719 3.70433594 -6.42773438 3.97117188 -7.32421875 4.24609375 C-9.87025921 4.96344529 -12.4003423 5.517541 -15 6 C-13.40316884 3.40712564 -12.5164192 2.17744063 -9.58984375 1.171875 C-8.71457031 1.03265625 -7.83929688 0.8934375 -6.9375 0.75 C-6.05964844 0.60046875 -5.18179688 0.4509375 -4.27734375 0.296875 C-2 0 -2 0 0 0 Z " fill="#1F2E44" transform="translate(208,41)"/>
<path d="M0 0 C3.96 1.98 7.92 3.96 12 6 C12 6.66 12 7.32 12 8 C9.36 7.34 6.72 6.68 4 6 C4 5.34 4 4.68 4 4 C2.68 3.34 1.36 2.68 0 2 C0 1.34 0 0.68 0 0 Z " fill="#CE9357" transform="translate(220,265)"/>
<path d="M0 0 C0 0.99 0 1.98 0 3 C-1.27875 3.309375 -2.5575 3.61875 -3.875 3.9375 C-6.10101675 4.47605244 -7.94739999 4.9737 -10 6 C-10 4.68 -10 3.36 -10 2 C-6.38026598 0.68373308 -3.90432869 0 0 0 Z " fill="#DC7D40" transform="translate(181,273)"/>
<path d="M0 0 C4.27547053 -0.34203764 6.59660493 -0.21269922 10.4375 1.8125 C11.283125 2.534375 12.12875 3.25625 13 4 C13 4.99 13 5.98 13 7 C12.2884375 6.319375 12.2884375 6.319375 11.5625 5.625 C7.94315657 3.3298066 4.1770561 2.75865335 0 2 C0 1.34 0 0.68 0 0 Z " fill="#BF7259" transform="translate(161,241)"/>
<path d="M0 0 C4.95 0.33 9.9 0.66 15 1 C15 1.99 15 2.98 15 4 C10.71 3.67 6.42 3.34 2 3 C2 2.34 2 1.68 2 1 C1.34 0.67 0.68 0.34 0 0 Z " fill="#1A344A" transform="translate(247,98)"/>
<path d="M0 0 C2.92879371 0.62759865 5.36095629 1.58622659 8 3 C7.34 3.66 6.68 4.32 6 5 C6 4.34 6 3.68 6 3 C5.05125 3.495 4.1025 3.99 3.125 4.5 C0 6 0 6 -2 6 C-1.34 4.02 -0.68 2.04 0 0 Z " fill="#204563" transform="translate(302,74)"/>
<path d="M0 0 C2.64 0.99 5.28 1.98 8 3 C8 3.66 8 4.32 8 5 C6.02 5.99 6.02 5.99 4 7 C2 5.75 2 5.75 0 4 C0 2.68 0 1.36 0 0 Z " fill="#234564" transform="translate(240,49)"/>
<path d="M0 0 C3.32856495 1.16949579 5.9142809 2.07999325 8 5 C8.6875 8.1875 8.6875 8.1875 9 11 C5.36440339 7.56638098 2.63886654 4.2026393 0 0 Z " fill="#CC6C54" transform="translate(123,273)"/>
<path d="M0 0 C4.95 0.99 9.9 1.98 15 3 C15 3.33 15 3.66 15 4 C13.06318839 4.08107583 11.1254066 4.13922475 9.1875 4.1875 C8.10855469 4.22230469 7.02960938 4.25710938 5.91796875 4.29296875 C3 4 3 4 1.11328125 2.55078125 C0 1 0 1 0 0 Z " fill="#1B2837" transform="translate(198,441)"/>
<path d="M0 0 C0.33 0.66 0.66 1.32 1 2 C-0.12104533 3.31587941 -1.24696965 4.62760353 -2.375 5.9375 C-3.00148437 6.66839844 -3.62796875 7.39929688 -4.2734375 8.15234375 C-6 10 -6 10 -8 11 C-7.75 8.625 -7.75 8.625 -7 6 C-5.125 4.9375 -5.125 4.9375 -3 4 C-1.26574227 1.96682993 -1.26574227 1.96682993 0 0 Z " fill="#324956" transform="translate(250,426)"/>
<path d="M0 0 C1.98 0.99 1.98 0.99 4 2 C4.25 9.5 4.25 9.5 2 14 C2 10.37 2 6.74 2 3 C1.34 3 0.68 3 0 3 C0 2.01 0 1.02 0 0 Z " fill="#DC9346" transform="translate(280,242)"/>
<path d="M0 0 C0.99 0 1.98 0 3 0 C3 0.99 3 1.98 3 3 C0.69 4.32 -1.62 5.64 -4 7 C-4.66 6.34 -5.32 5.68 -6 5 C-5.34 5 -4.68 5 -4 5 C-3.67 4.01 -3.34 3.02 -3 2 C-2.01 2 -1.02 2 0 2 C0 1.34 0 0.68 0 0 Z " fill="#243B49" transform="translate(239,435)"/>
<path d="M0 0 C0.33 0 0.66 0 1 0 C0.57910004 5.60461531 0.08386889 10.72086547 -2 16 C-2.33 16 -2.66 16 -3 16 C-3.33266291 9.79029227 -2.45029331 5.71735105 0 0 Z " fill="#CD9056" transform="translate(325,228)"/>
<path d="M0 0 C0.99 0 1.98 0 3 0 C2.63076923 7.26153846 2.63076923 7.26153846 -0.5625 11 C-1.366875 11.66 -2.17125 12.32 -3 13 C-2.34 10.69 -1.68 8.38 -1 6 C-0.34 6 0.32 6 1 6 C0.67 4.02 0.34 2.04 0 0 Z " fill="#1B3445" transform="translate(249,418)"/>
<path d="M0 0 C2.64 0 5.28 0 8 0 C7.34 1.32 6.68 2.64 6 4 C5.01 4 4.02 4 3 4 C3 3.01 3 2.02 3 1 C2.34 1 1.68 1 1 1 C1 2.65 1 4.3 1 6 C0.34 5.34 -0.32 4.68 -1 4 C-0.625 1.875 -0.625 1.875 0 0 Z " fill="#2E3B4A" transform="translate(178,418)"/>
<path d="M0 0 C1.35439668 2.70879335 1.06501451 5.00933268 1 8 C-0.98 8.66 -2.96 9.32 -5 10 C-5 8.02 -5 6.04 -5 4 C-4.34 4.66 -3.68 5.32 -3 6 C-2.01 4.02 -1.02 2.04 0 0 Z " fill="#E49C3C" transform="translate(279,304)"/>
<path d="M0 0 C2.73902249 2.36551942 3.93170092 4.54857221 5 8 C5.125 10.8125 5.125 10.8125 5 13 C0.87010523 8.73688282 0.38728235 5.71241466 0 0 Z " fill="#CB6C48" transform="translate(113,252)"/>
<path d="M0 0 C0.99 0 1.98 0 3 0 C3.99 3.3 4.98 6.6 6 10 C5.01 9.67 4.02 9.34 3 9 C2.05078125 6.93359375 2.05078125 6.93359375 1.3125 4.4375 C1.06113281 3.61121094 0.80976563 2.78492188 0.55078125 1.93359375 C0.36902344 1.29550781 0.18726563 0.65742188 0 0 Z " fill="#C46D4A" transform="translate(182,244)"/>
<path d="M0 0 C0.99 0.495 0.99 0.495 2 1 C2.144375 2.134375 2.28875 3.26875 2.4375 4.4375 C2.623125 5.613125 2.80875 6.78875 3 8 C3.99 8.66 4.98 9.32 6 10 C4.35 10.33 2.7 10.66 1 11 C0.67 7.37 0.34 3.74 0 0 Z " fill="#243647" transform="translate(332,119)"/>
<path d="M0 0 C-6.05473373 2.57886807 -11.44074057 3.61020794 -18 4 C-15.48115349 1.48115349 -13.56355758 1.1742412 -10.125 0.3125 C-9.07570312 0.04050781 -8.02640625 -0.23148437 -6.9453125 -0.51171875 C-4.14833162 -0.97540921 -2.627808 -0.94575698 0 0 Z " fill="#17293C" transform="translate(175,101)"/>
<path d="M0 0 C0 0.33 0 0.66 0 1 C-5.94 1.495 -5.94 1.495 -12 2 C-12 2.66 -12 3.32 -12 4 C-14.64 3.67 -17.28 3.34 -20 3 C-20 2.67 -20 2.34 -20 2 C-13.25846717 0.74158054 -6.86515862 -0.26404456 0 0 Z " fill="#36414F" transform="translate(199,95)"/>
<path d="M0 0 C1.98 0.495 1.98 0.495 4 1 C3.67 2.98 3.34 4.96 3 7 C2.34 7 1.68 7 1 7 C-1 4 -1 4 -0.625 1.8125 C-0.41875 1.214375 -0.2125 0.61625 0 0 Z " fill="#1C2D41" transform="translate(183,425)"/>
<path d="M0 0 C0.66 0.33 1.32 0.66 2 1 C1.02526874 2.66926454 0.04510211 4.33535642 -0.9375 6 C-1.75541016 7.3921875 -1.75541016 7.3921875 -2.58984375 8.8125 C-3.05519531 9.534375 -3.52054687 10.25625 -4 11 C-4.33 11 -4.66 11 -5 11 C-4.67 8.69 -4.34 6.38 -4 4 C-3.01 4 -2.02 4 -1 4 C-0.67 2.68 -0.34 1.36 0 0 Z " fill="#D49A64" transform="translate(284,300)"/>
<path d="M0 0 C0.33 0 0.66 0 1 0 C1 4.29 1 8.58 1 13 C0.01 13 -0.98 13 -2 13 C-2 10.36 -2 7.72 -2 5 C-1.67 5 -1.34 5 -1 5 C-0.67 3.35 -0.34 1.7 0 0 Z " fill="#CF6C47" transform="translate(149,243)"/>
<path d="M0 0 C0.5775 0.37125 1.155 0.7425 1.75 1.125 C2.4925 1.41375 3.235 1.7025 4 2 C5.34977849 1.36729133 6.68352881 0.69937532 8 0 C10.25 0.375 10.25 0.375 12 1 C9.28817788 3.60334924 8.10866187 3.99456691 4.25 4.1875 C3.1775 4.125625 2.105 4.06375 1 4 C0.67 2.68 0.34 1.36 0 0 Z " fill="#122C42" transform="translate(341,205)"/>
<path d="M0 0 C2.31 0.66 4.62 1.32 7 2 C8.125 5.75 8.125 5.75 7 8 C6.34 8 5.68 8 5 8 C4.731875 7.195625 4.46375 6.39125 4.1875 5.5625 C3.795625 4.716875 3.40375 3.87125 3 3 C2.01 2.67 1.02 2.34 0 2 C0 1.34 0 0.68 0 0 Z " fill="#203444" transform="translate(377,102)"/>
<path d="M0 0 C3.60654039 2.40436026 3.85452932 3.94679607 5 8 C5.66 8 6.32 8 7 8 C7.66 9.32 8.32 10.64 9 12 C4.58848955 10.52949652 2.14860084 6.95377777 0 3 C0 2.01 0 1.02 0 0 Z " fill="#474E5B" transform="translate(179,424)"/>
<path d="M0 0 C2.46313739 1.82748903 3.83428618 3.22976216 4.48828125 6.26953125 C4.72518293 8.51479346 4.90361349 10.74455578 5 13 C2.2946129 8.94191935 0 4.95110601 0 0 Z " fill="#C2705A" transform="translate(153,313)"/>
<path d="M0 0 C-1.25 1.5 -1.25 1.5 -3 3 C-4.32 3 -5.64 3 -7 3 C-7 3.66 -7 4.32 -7 5 C-7.99 4.67 -8.98 4.34 -10 4 C-10 3.34 -10 2.68 -10 2 C-8.71211992 1.46987262 -7.41953322 0.9511671 -6.125 0.4375 C-5.40570313 0.14746094 -4.68640625 -0.14257812 -3.9453125 -0.44140625 C-2 -1 -2 -1 0 0 Z " fill="#D89255" transform="translate(207,269)"/>
<path d="M0 0 C0.33 0.66 0.66 1.32 1 2 C-2.98060777 3.17076699 -6.91621717 4.25749403 -11 5 C-7.49434208 1.32740599 -5.1720171 -0.27956849 0 0 Z " fill="#C88F56" transform="translate(218,263)"/>
<path d="M0 0 C0.7425 0.61875 1.485 1.2375 2.25 1.875 C4.48801188 3.60437281 6.43739987 4.86106661 9 6 C9 6.33 9 6.66 9 7 C6.69 6.67 4.38 6.34 2 6 C1.34 4.02 0.68 2.04 0 0 Z " fill="#CB6448" transform="translate(163,257)"/>
<path d="M0 0 C3.46458331 1.1548611 5.970208 2.98013866 9 5 C4.53160785 5.21278058 1.17737474 4.59138085 -3 3 C-2.01 2.01 -1.02 1.02 0 0 Z " fill="#314354" transform="translate(352,206)"/>
<path d="M0 0 C1.09658936 3.28976808 0.79953138 4.71303767 0 8 C-0.66 8 -1.32 8 -2 8 C-2.33 8.66 -2.66 9.32 -3 10 C-3 7.36 -3 4.72 -3 2 C-2.01 2 -1.02 2 0 2 C0 1.34 0 0.68 0 0 Z " fill="#1E3148" transform="translate(345,193)"/>
<path d="M0 0 C4.875 1.875 4.875 1.875 6 3 C6.07205511 4.68608966 6.08386068 6.37500659 6.0625 8.0625 C6.05347656 8.98160156 6.04445313 9.90070313 6.03515625 10.84765625 C6.02355469 11.55792969 6.01195312 12.26820313 6 13 C5.67 13 5.34 13 5 13 C4.67 10.03 4.34 7.06 4 4 C3.34 4 2.68 4 2 4 C2 3.34 2 2.68 2 2 C1.34 2 0.68 2 0 2 C0 1.34 0 0.68 0 0 Z " fill="#192C3D" transform="translate(363,155)"/>
<path d="M0 0 C5.625 -0.25 5.625 -0.25 9 2 C9 2.99 9 3.98 9 5 C5.54074837 3.7508258 2.85306797 2.32472205 0 0 Z " fill="#2D4157" transform="translate(314,109)"/>
<path d="M0 0 C2.97 0.99 5.94 1.98 9 3 C9 3.66 9 4.32 9 5 C10.32 5.33 11.64 5.66 13 6 C7.7141451 6.50341475 5.13445849 5.26910671 1 2 C0.67 1.34 0.34 0.68 0 0 Z " fill="#E49842" transform="translate(225,257)"/>
<path d="M0 0 C1.32 0 2.64 0 4 0 C4 0.66 4 1.32 4 2 C4.804375 2.12375 5.60875 2.2475 6.4375 2.375 C7.7059375 2.684375 7.7059375 2.684375 9 3 C9.33 3.66 9.66 4.32 10 5 C6.87709365 4.51421457 4.00419641 4.0013988 1 3 C0.67 2.01 0.34 1.02 0 0 Z " fill="#172939" transform="translate(198,166)"/>
<path d="M0 0 C2.97 0 5.94 0 9 0 C5.99559979 2.00293347 4.29006055 2.49271626 0.8125 3.125 C-0.53908203 3.37636719 -0.53908203 3.37636719 -1.91796875 3.6328125 C-2.60503906 3.75398437 -3.29210937 3.87515625 -4 4 C-2.68 3.34 -1.36 2.68 0 2 C0 1.34 0 0.68 0 0 Z " fill="#2E3A49" transform="translate(121,163)"/>
<path d="M0 0 C-3.31371 2.20914 -4.3446021 2.22481553 -8.1875 2.125 C-9.08855469 2.10695312 -9.98960937 2.08890625 -10.91796875 2.0703125 C-11.60503906 2.04710937 -12.29210937 2.02390625 -13 2 C-8.53448096 -0.31790713 -4.94391187 -1.64797062 0 0 Z " fill="#1B293B" transform="translate(138,161)"/>
<path d="M0 0 C0.99 0.33 1.98 0.66 3 1 C4.1875 4.0625 4.1875 4.0625 5 7 C2.0280615 5.87548273 -0.33440687 4.77706209 -3 3 C-2.67 2.34 -2.34 1.68 -2 1 C-1.01 1.33 -0.02 1.66 1 2 C0.67 1.34 0.34 0.68 0 0 Z " fill="#214461" transform="translate(322,106)"/>
<path d="M0 0 C3.875 1.75 3.875 1.75 5 4 C0.94568308 5.15837626 -1.21812119 4.83691257 -5 3 C-5 2.67 -5 2.34 -5 2 C-3.35 2 -1.7 2 0 2 C0 1.34 0 0.68 0 0 Z " fill="#2B445D" transform="translate(304,100)"/>
<path d="M0 0 C1.43836751 0.11458693 2.87570966 0.24209116 4.3125 0.375 C5.51326172 0.47941406 5.51326172 0.47941406 6.73828125 0.5859375 C9 1 9 1 12 3 C11.67 3.66 11.34 4.32 11 5 C10.113125 4.690625 9.22625 4.38125 8.3125 4.0625 C5.53290845 3.1709329 2.86863625 2.50622993 0 2 C0 1.34 0 0.68 0 0 Z " fill="#344A59" transform="translate(256,391)"/>
<path d="M0 0 C1 3 1 3 -0.4375 6.1875 C-1.2109375 7.5796875 -1.2109375 7.5796875 -2 9 C-3.125 7.25 -3.125 7.25 -4 5 C-3.07451225 2.30066074 -2.57626463 1.28813232 0 0 Z " fill="#223347" transform="translate(349,183)"/>
<path d="M0 0 C2.64 0.66 5.28 1.32 8 2 C7.67 2.99 7.34 3.98 7 5 C4.625 4.75 4.625 4.75 2 4 C0.6875 1.9375 0.6875 1.9375 0 0 Z " fill="#1D2B3B" transform="translate(209,171)"/>
<path d="M0 0 C1.32 0.66 2.64 1.32 4 2 C3.01 2 2.02 2 1 2 C1 2.66 1 3.32 1 4 C1.66 4.33 2.32 4.66 3 5 C1.02 5.99 1.02 5.99 -1 7 C-1.33 5.35 -1.66 3.7 -2 2 C-1.34 2 -0.68 2 0 2 C0 1.34 0 0.68 0 0 Z " fill="#26465B" transform="translate(345,88)"/>
<path d="M0 0 C2.4375 0.8125 2.4375 0.8125 5 2 C5.33 2.99 5.66 3.98 6 5 C4.5625 7.1875 4.5625 7.1875 3 9 C2 6 1 3 0 0 Z " fill="#183041" transform="translate(264,394)"/>
<path d="M0 0 C1.98 0 3.96 0 6 0 C6.33 0.66 6.66 1.32 7 2 C7.99 2.66 8.98 3.32 10 4 C6.53058454 3.54177532 3.32604951 3.10868317 0 2 C0 1.34 0 0.68 0 0 Z " fill="#D99747" transform="translate(289,170)"/>
<path d="M0 0 C0.33 1.32 0.66 2.64 1 4 C-2.3 3.34 -5.6 2.68 -9 2 C-9 1.67 -9 1.34 -9 1 C-5.94152152 0.45627049 -3.11227195 0 0 0 Z " fill="#2B4458" transform="translate(309,162)"/>
<path d="M0 0 C3.3 0.33 6.6 0.66 10 1 C9.67 1.66 9.34 2.32 9 3 C6.69 3 4.38 3 2 3 C2 2.34 2 1.68 2 1 C1.34 0.67 0.68 0.34 0 0 Z " fill="#C2735B" transform="translate(167,272)"/>
<path d="M0 0 C2.64 0 5.28 0 8 0 C7.67 0.99 7.34 1.98 7 3 C4.69 2.67 2.38 2.34 0 2 C0 1.34 0 0.68 0 0 Z " fill="#D89A55" transform="translate(233,263)"/>
<path d="M0 0 C0 0.66 0 1.32 0 2 C0.66 2.33 1.32 2.66 2 3 C-2.05606165 2.53199289 -5.46588679 2.12046792 -9 0 C-5.67465243 -1.10844919 -3.37817425 -0.84454356 0 0 Z " fill="#2F364A" transform="translate(192,163)"/>
<path d="M0 0 C1.98 0 3.96 0 6 0 C6.33 0.66 6.66 1.32 7 2 C7.99 2.66 8.98 3.32 10 4 C3.47692308 3.38461538 3.47692308 3.38461538 1.0625 1.4375 C0.711875 0.963125 0.36125 0.48875 0 0 Z " fill="#163149" transform="translate(282,107)"/>
<path d="M0 0 C2 0.125 2 0.125 4 1 C5.25 3.0625 5.25 3.0625 6 5 C3.36 4.01 0.72 3.02 -2 2 C-1.34 1.34 -0.68 0.68 0 0 Z " fill="#2D4150" transform="translate(263,366)"/>
<path d="M0 0 C1.65 0 3.3 0 5 0 C2.45543849 2.96865509 -0.48994665 4.3619751 -4 6 C-4 5.34 -4 4.68 -4 4 C-3.34 4 -2.68 4 -2 4 C-1.34 2.68 -0.68 1.36 0 0 Z " fill="#324150" transform="translate(106,112)"/>
<path d="M0 0 C2.475 0.99 2.475 0.99 5 2 C4.34 3.32 3.68 4.64 3 6 C1.68 4.35 0.36 2.7 -1 1 C-0.67 0.67 -0.34 0.34 0 0 Z " fill="#1B4262" transform="translate(306,98)"/>
<path d="M0 0 C1.32 0.33 2.64 0.66 4 1 C4 1.66 4 2.32 4 3 C4.66 3 5.32 3 6 3 C6.33 3.99 6.66 4.98 7 6 C2.32307692 4.52307692 2.32307692 4.52307692 0.6875 1.875 C0.460625 1.25625 0.23375 0.6375 0 0 Z " fill="#19273A" transform="translate(186,432)"/>
<path d="M0 0 C-0.66 0 -1.32 0 -2 0 C-2 0.66 -2 1.32 -2 2 C-4.64 2 -7.28 2 -10 2 C-6.19832777 -0.53444815 -4.31588991 -1.33941411 0 0 Z " fill="#173142" transform="translate(249,162)"/>
<path d="M0 0 C6.75 0.75 6.75 0.75 9 3 C6.69 3 4.38 3 2 3 C2 2.34 2 1.68 2 1 C1.34 0.67 0.68 0.34 0 0 Z " fill="#17273A" transform="translate(57,113)"/>
<path d="M0 0 C1.625 2.5 1.625 2.5 3 5 C0.69 4.34 -1.62 3.68 -4 3 C-4 2.34 -4 1.68 -4 1 C-2 0 -2 0 0 0 Z " fill="#214565" transform="translate(300,96)"/>
<path d="M0 0 C3.55780196 0.60990891 6.6828589 1.5783681 10 3 C9.67 3.66 9.34 4.32 9 5 C6.69 4.34 4.38 3.68 2 3 C2 2.34 2 1.68 2 1 C1.34 0.67 0.68 0.34 0 0 Z " fill="#254763" transform="translate(264,59)"/>
</svg>
